<?xml version="1.0" encoding="utf-8"?>
<!-- Generator: Adobe Illustrator 24.0.1, SVG Export Plug-In . SVG Version: 6.00 Build 0)  -->
<svg version="1.1" id="Layer_1" xmlns="http://www.w3.org/2000/svg" xmlns:xlink="http://www.w3.org/1999/xlink" x="0px" y="0px"
	 viewBox="0 0 64 64" style="enable-background:new 0 0 64 64;" xml:space="preserve">
<style type="text/css">
	.st0{display:none;}
	.st1{display:inline;opacity:0.25;enable-background:new    ;}
	.st2{display:inline;fill:url(#SVGID_1_);}
	.st3{display:inline;fill:url(#SVGID_2_);}
	.st4{display:inline;fill:url(#SVGID_3_);}
	.st5{display:inline;fill:url(#SVGID_4_);}
	
		.st6{display:inline;fill:url(#SVGID_5_);stroke:#0D224D;stroke-width:0.1463;stroke-linecap:round;stroke-linejoin:round;stroke-miterlimit:1.7403;}
	.st7{display:inline;}
	.st8{opacity:0.8;enable-background:new    ;}
	.st9{fill:#4678CC;}
	.st10{opacity:0.3;fill:#FFFFFF;enable-background:new    ;}
	.st11{opacity:0.2;enable-background:new    ;}
	.st12{fill:#FFFFFF;}
	.st13{opacity:0.45;enable-background:new    ;}
	.st14{fill:#4397EE;}
	.st15{opacity:0.8542;fill:#FFFFFF;enable-background:new    ;}
	.st16{fill:#DDB40A;}
	.st17{opacity:0.98;fill:#FFFFFF;enable-background:new    ;}
	
		.st18{display:none;opacity:0.98;fill:#FFFFFF;stroke:#3F3F3F;stroke-width:5.000000e-02;stroke-miterlimit:10;enable-background:new    ;}
	.st19{fill:#FFDA00;}
	.st20{fill:none;}
	.st21{fill-rule:evenodd;clip-rule:evenodd;fill:#231F20;stroke:#FFFFFF;stroke-width:0.25;stroke-miterlimit:10;}
	.st22{fill-rule:evenodd;clip-rule:evenodd;fill:#231F20;}
	.st23{fill:#282828;stroke:#FFFFFF;stroke-width:0.75;stroke-miterlimit:10;}
	.st24{fill:#494949;stroke:#FFFFFF;stroke-width:0.25;stroke-miterlimit:10;}
	.st25{opacity:0.4;fill:#C9C9C9;stroke:#FFFFFF;stroke-width:0.25;stroke-miterlimit:10;enable-background:new    ;}
</style>
<g transform="matrix(.69746 0 0 .69746 2.5613 2.566)" class="st0">
	<g class="st1">
		<circle cx="42.2" cy="42.2" r="30"/>
	</g>
	
		<linearGradient id="SVGID_1_" gradientUnits="userSpaceOnUse" x1="-1550.3732" y1="5518.2261" x2="-1550.3732" y2="5540.9858" gradientTransform="matrix(0.4351 0 0 0.4351 716.7294 -2401.645)">
		<stop  offset="0" style="stop-color:#CCCCCC"/>
		<stop  offset="1" style="stop-color:#EBEBEB"/>
	</linearGradient>
	<circle class="st2" cx="42.2" cy="42.2" r="43"/>
	
		<linearGradient id="SVGID_2_" gradientUnits="userSpaceOnUse" x1="-1613.2711" y1="7891.897" x2="-1613.2711" y2="7907.7671" gradientTransform="matrix(0.4403 0 0 0.4403 752.5337 -3463.0696)">
		<stop  offset="0" style="stop-color:#666666"/>
		<stop  offset="1" style="stop-color:#9F9F9F"/>
	</linearGradient>
	<circle class="st3" cx="42.2" cy="42.2" r="30.1"/>
	
		<linearGradient id="SVGID_3_" gradientUnits="userSpaceOnUse" x1="-1550.3732" y1="7994.9292" x2="-1550.3732" y2="8007.6289" gradientTransform="matrix(0.4351 0 0 0.4351 716.7294 -3460.198)">
		<stop  offset="0" style="stop-color:#333333"/>
		<stop  offset="1" style="stop-color:#666666"/>
	</linearGradient>
	<circle class="st4" cx="42.2" cy="42.2" r="24"/>
	
		<linearGradient id="SVGID_4_" gradientUnits="userSpaceOnUse" x1="-1550.3948" y1="8004.1597" x2="-1550.3948" y2="8014.751" gradientTransform="matrix(0.4351 0 0 0.4351 716.7294 -3460.198)">
		<stop  offset="0" style="stop-color:#000000"/>
		<stop  offset="1" style="stop-color:#121212"/>
	</linearGradient>
	<path class="st5" d="M42.2,22.2c11,0.8,20,9,20,20s-9,20-20,20s-20.5-9-20-20C22.7,31,33.1,21.6,42.2,22.2z"/>
	
		<radialGradient id="SVGID_5_" cx="45770.0977" cy="90964.1172" r="38.474" gradientTransform="matrix(4.274925e-02 0 0 3.586186e-02 -1914.0298 -3220.6509)" gradientUnits="userSpaceOnUse">
		<stop  offset="0" style="stop-color:#2561DB;stop-opacity:0.9412"/>
		<stop  offset="1" style="stop-color:#0D0D0D"/>
	</radialGradient>
	<circle class="st6" cx="42.2" cy="42.2" r="15.6"/>
	<g class="st7">
		<g class="st8">
			<path class="st9" d="M28.9,34.7l5.5,3.1c0,0,1.7-1.8,2.9-2.6c1.3-0.9,4.2-1.6,4.1-1.4l-0.9-6.7C40.6,27.1,34.4,26.5,28.9,34.7
				L28.9,34.7z"/>
		</g>
		<g class="st8">
			<path class="st9" d="M28.3,35.7l5.9,2.6c0,0-0.3,0.8-0.5,1.6c-0.1,0.8,0,1.5,0,1.5l-6.8-0.1C26.9,41.3,27.2,37.4,28.3,35.7
				L28.3,35.7z"/>
		</g>
		<g transform="translate(0,-280.07)">
			<g>
				
					<ellipse transform="matrix(0.7557 -0.6549 0.6549 0.7557 -198.1128 100.0803)" class="st10" cx="35.1" cy="315.6" rx="1.7" ry="1"/>
			</g>
			<g>
				
					<ellipse transform="matrix(0.7557 -0.6549 0.6549 0.7557 -199.7093 102.3986)" class="st10" cx="37.4" cy="318.9" rx="0.7" ry="0.4"/>
			</g>
			<g class="st11">
				
					<ellipse transform="matrix(0.8312 -0.556 0.556 0.8312 -175.594 82.2806)" class="st12" cx="47.7" cy="330.3" rx="6.9" ry="4.3"/>
			</g>
			<g>
				
					<ellipse transform="matrix(0.7557 -0.6549 0.6549 0.7557 -204.1101 109.7855)" class="st10" cx="45.1" cy="328.5" rx="1.3" ry="0.8"/>
			</g>
			<g>
				
					<ellipse transform="matrix(0.7557 -0.6549 0.6549 0.7557 -205.8306 113.1894)" class="st12" cx="48.8" cy="332.5" rx="2.8" ry="1.7"/>
			</g>
		</g>
		<g transform="translate(0,-280.07)">
			<g class="st13">
				
					<ellipse transform="matrix(0.8614 -0.5079 0.5079 0.8614 -160.193 69.3051)" class="st14" cx="46.9" cy="328.2" rx="7.9" ry="4.9"/>
			</g>
			<g>
				
					<ellipse transform="matrix(0.7557 -0.6549 0.6549 0.7557 -198.3048 100.3771)" class="st15" cx="35.4" cy="316" rx="0.9" ry="0.5"/>
			</g>
			<g>
				
					<ellipse transform="matrix(0.7557 -0.6549 0.6549 0.7557 -201.5016 105.6)" class="st10" cx="40.8" cy="322.9" rx="0.5" ry="0.3"/>
			</g>
		</g>
	</g>
</g>
<path class="st16" d="M22.8,4.7c2.1,3,5.4,4.5,9.4,4.5c5.6,0.1,11.7,0.4,17,1.6c7.1,1.6,12.1,7.5,12.1,14.2v21.5H4.6L4.3,18.2
	c0-8.1,8-16.3,17-16.2L22.8,4.7z"/>
<path id="XMLID_1_" class="st17" d="M58.2,53.9H7.6c-1.5,0-2.7-1.2-2.7-2.7V27c0-7.2,5.9-13.1,13.1-13.1h29.9
	c7.3,0,13.2,5.9,13.2,13.2v24.1C60.9,52.6,59.7,53.9,58.2,53.9z"/>
<path class="st18" d="M44.5,45.4H15.2c-1.5,0-2.7-1.2-2.7-2.7V32.5c0-7.2,5.9-13.1,13.1-13.1h8.6c7.3,0,13.2,5.9,13.2,13.2v10
	C47.3,44.1,46.1,45.4,44.5,45.4z"/>
<path class="st18" d="M44.5,46.1H15.1c-1.5,0-2.7-1.2-2.7-2.7V33.2c0-7.2,5.9-13.1,13.1-13.1H34c7.3,0,13.2,5.9,13.2,13.2v10
	C47.2,44.8,46,46.1,44.5,46.1z"/>
<path class="st19" d="M58.4,57.9H7.3c-1.5,0-2.7-1.2-2.7-2.7V29c0-7.2,5.9-13.1,13.1-13.1H48c7.3,0,13.2,5.9,13.2,13.2v26.1
	C61.2,56.7,59.9,57.9,58.4,57.9z"/>
<path class="st16" d="M4.3,3.5"/>
<line class="st20" x1="73.3" y1="8.4" x2="73.3" y2="8.4"/>
<g>
	<g>
		<g>
			<g>
				<g>
					<rect x="47.5" y="33.8" class="st21" width="1.1" height="1.6"/>
					<rect x="47.5" y="30.9" class="st21" width="1.1" height="1.6"/>
					<rect x="47.5" y="28" class="st21" width="1.1" height="1.6"/>
				</g>
			</g>
			<g>
				<g>
					<rect x="47.5" y="42.7" class="st21" width="1.1" height="1.6"/>
					<rect x="47.5" y="39.8" class="st21" width="1.1" height="1.6"/>
					<rect x="47.5" y="36.9" class="st21" width="1.1" height="1.6"/>
				</g>
			</g>
			<g>
				<g>
					<rect x="34.6" y="49.6" class="st21" width="1.6" height="1.1"/>
					<rect x="37.6" y="49.6" class="st21" width="1.6" height="1.1"/>
					<rect x="40.6" y="49.6" class="st21" width="1.6" height="1.1"/>
				</g>
			</g>
			<g>
				<g>
					<rect x="25.8" y="49.6" class="st21" width="1.6" height="1.1"/>
					<rect x="28.7" y="49.6" class="st21" width="1.6" height="1.1"/>
					<rect x="31.7" y="49.6" class="st21" width="1.6" height="1.1"/>
				</g>
			</g>
			<g>
				<g>
					<rect x="19.5" y="36.8" class="st21" width="1.1" height="1.6"/>
					<rect x="19.5" y="39.8" class="st21" width="1.1" height="1.6"/>
					<rect x="19.5" y="42.7" class="st21" width="1.1" height="1.6"/>
				</g>
			</g>
			<g>
				<g>
					<rect x="19.5" y="27.9" class="st21" width="1.1" height="1.6"/>
					<rect x="19.5" y="30.9" class="st21" width="1.1" height="1.6"/>
					<rect x="19.5" y="33.8" class="st21" width="1.1" height="1.6"/>
				</g>
			</g>
			<g>
				<g>
					<rect x="31.7" y="21.6" class="st21" width="1.6" height="1.1"/>
					<rect x="28.7" y="21.6" class="st21" width="1.6" height="1.1"/>
					<rect x="25.8" y="21.6" class="st21" width="1.6" height="1.1"/>
				</g>
			</g>
			<g>
				<g>
					<rect x="40.6" y="21.6" class="st21" width="1.6" height="1.1"/>
					<rect x="37.6" y="21.6" class="st21" width="1.6" height="1.1"/>
					<rect x="34.7" y="21.6" class="st21" width="1.6" height="1.1"/>
				</g>
			</g>
			<g>
				<rect x="47.5" y="45.7" class="st21" width="1.1" height="1.8"/>
				<polygon class="st21" points="48.6,50.7 48.6,48.9 47.5,48.9 47.5,49.6 46.8,49.6 46.8,50.7 				"/>
				<rect x="43.7" y="49.6" class="st21" width="1.8" height="1.1"/>
			</g>
			<g>
				<rect x="22.7" y="49.7" class="st22" width="1.8" height="1.1"/>
				<polygon class="st21" points="19.5,50.7 21.2,50.7 21.2,49.7 20.5,49.7 20.5,49 19.5,49 				"/>
				<rect x="19.5" y="45.8" class="st21" width="1.1" height="1.8"/>
			</g>
			<g>
				<rect x="19.4" y="24.8" class="st21" width="1.1" height="1.8"/>
				<polygon class="st21" points="19.4,21.6 19.4,23.4 20.5,23.4 20.5,22.7 21.2,22.7 21.2,21.6 				"/>
				<rect x="22.6" y="21.6" class="st21" width="1.8" height="1.1"/>
			</g>
			<g>
				<rect x="43.6" y="21.6" class="st21" width="1.8" height="1.1"/>
				<polygon class="st21" points="48.5,21.6 46.8,21.6 46.8,22.6 47.5,22.6 47.5,23.3 48.5,23.3 				"/>
				<rect x="47.5" y="24.7" class="st21" width="1.1" height="1.8"/>
			</g>
		</g>
	</g>
</g>
<circle class="st23" cx="22.5" cy="48.6" r="6.8"/>
<circle class="st24" cx="22.5" cy="48.6" r="4.3"/>
<circle class="st25" cx="21.3" cy="47.9" r="2.7"/>
</svg>
