<?xml version="1.0" encoding="utf-8"?>
<!-- Generator: Adobe Illustrator 24.0.1, SVG Export Plug-In . SVG Version: 6.00 Build 0)  -->
<svg version="1.1" id="Layer_1" xmlns="http://www.w3.org/2000/svg" xmlns:xlink="http://www.w3.org/1999/xlink" x="0px" y="0px"
	 viewBox="0 0 64 64" style="enable-background:new 0 0 64 64;" xml:space="preserve">
<style type="text/css">
	.st0{fill:#FFFFFF;}
	.st1{fill:#F73E6B;}
	.st2{fill:#40BDF4;}
	.st3{fill:#4067F4;}
</style>
<path class="st0" d="M17-5.8"/>
<path class="st1" d="M46.5,25.3H15.5c-3.1,0-5.7-2.5-5.7-5.7v0c0-3.1,2.5-5.7,5.7-5.7h31.1c3.1,0,5.7,2.5,5.7,5.7v0
	C52.2,22.8,49.7,25.3,46.5,25.3z"/>
<path class="st2" d="M52.8,36.7H21.7c-3.1,0-5.7-2.5-5.7-5.7v0c0-3.1,2.5-5.7,5.7-5.7h31.1c3.1,0,5.7,2.5,5.7,5.7v0
	C58.5,34.1,55.9,36.7,52.8,36.7z"/>
<path class="st3" d="M45.2,48.1H14.1c-3.1,0-5.7-2.5-5.7-5.7v0c0-3.1,2.5-5.7,5.7-5.7h31.1c3.1,0,5.7,2.5,5.7,5.7v0
	C50.9,45.5,48.3,48.1,45.2,48.1z"/>
</svg>
