<?xml version="1.0" encoding="utf-8"?>
<!-- Generator: Adobe Illustrator 24.0.1, SVG Export Plug-In . SVG Version: 6.00 Build 0)  -->
<svg version="1.1" id="Layer_1" xmlns="http://www.w3.org/2000/svg" xmlns:xlink="http://www.w3.org/1999/xlink" x="0px" y="0px"
	 viewBox="0 0 64 64" style="enable-background:new 0 0 64 64;" xml:space="preserve">
<style type="text/css">
	.st0{fill:none;}
	.st1{fill:#FF6161;}
</style>
<line class="st0" x1="87.7" y1="-7.4" x2="87.7" y2="-7.4"/>
<path class="st1" d="M51.7,3.4c-16.6,0-21.2,12.9-24.5,22.3c-0.7,1.9-1.3,3.7-1.8,5.6c-2.8,9.2-4.8,14.4-12.4,14.4
	c-1,0-1.8,0.8-1.8,1.8V58c0,1,0.8,1.8,1.8,1.8c12,0,21.1-10.4,24.2-21.1h11c1,0,1.8-0.8,1.8-1.8V26.3c0-1-0.8-1.8-1.8-1.8h-6.9
	l0.1-0.3c2-4.5,3-6.7,10.3-6.7c1,0,1.8-0.8,1.8-1.8V5.2C53.4,4.2,52.7,3.4,51.7,3.4z"/>
</svg>
