<?xml version="1.0" encoding="utf-8"?>
<!-- Generator: Adobe Illustrator 24.0.1, SVG Export Plug-In . SVG Version: 6.00 Build 0)  -->
<svg version="1.1" id="Layer_1" xmlns="http://www.w3.org/2000/svg" xmlns:xlink="http://www.w3.org/1999/xlink" x="0px" y="0px"
	 viewBox="0 0 64 64" style="enable-background:new 0 0 64 64;" xml:space="preserve">
<style type="text/css">
	.st0{fill:#FFFFFF;}
	.st1{fill:#FFCE00;stroke:#898989;stroke-width:0.25;stroke-miterlimit:10;}
</style>
<path class="st0" d="M17-5.8"/>
<path class="st1" d="M33.2,22.9c-1.3-0.1-4-0.1-8.2,0.7c-6,1.3-8.7,6.8-8.7,11.1S20.4,44,26.7,44c4.8,0,7.4-2.8,8.4-4.2
	c0.2-0.3,0.7-0.3,0.9,0c0.2,0.4,0.6,0.9,1,1.5c0.5,0.6,1.1,1.2,1.7,1.7c0.5,0.4,1.3,0.4,1.7,0l4.1-3.9c0.5-0.5,0.5-1.2,0.1-1.7
	c-0.2-0.3-0.5-0.7-0.9-1.2c-1.1-1.6-1.1-2.8-1.1-2.8V18.8c0-1.7-1.1-8.9-12.2-8.9c-9.1,0-11.8,6.5-12.6,8.8c-0.1,0.5,0.2,0.9,0.6,1
	l5.6,1c0.3,0.1,0.7-0.1,0.8-0.4c0.6-1.3,2.4-4.3,5.2-4.3c3.5,0,3.7,2.9,3.7,2.9v3.3C34,22.6,33.7,22.9,33.2,22.9z M34.1,28.3v4.2
	c0,2.2-1.5,4.2-3.7,4.6c-0.6,0.1-1.2,0.2-1.9,0.2c-4.7,0-3.8-6-1.7-7.8c1.6-1.4,5-1.8,6.5-2C33.8,27.5,34.1,27.8,34.1,28.3z"/>
<path class="st1" d="M47.3,45.9c2.3-0.3,3.3-0.6,4,0c0.7,0.6,0.5,1.8,0,3.3c-0.5,1.4-1.6,2.6-0.5,3.2c1.3,0.7,6.1-5.6,4.1-8.7
	c-1.7-2.6-8.7,0.3-9.2,0.7c-0.5,0.3-0.5,0.8-0.5,0.8S45,46.2,47.3,45.9z"/>
<path class="st1" d="M30,56.1c8.4,0,12-1.7,15.6-3.8s4.3-3.5,3.8-4.5c-0.5-0.9-2.6,0-4.4,0.8c-1.8,0.8-7.5,3-15.6,3
	s-16.3-5.7-18.1-7c-1.7-1.2-2.4,0-2.4,0s-0.5,1,1.1,3C11.6,49.6,19.8,56.1,30,56.1z"/>
</svg>
