<?xml version="1.0" encoding="utf-8"?>
<!-- Generator: Adobe Illustrator 24.0.1, SVG Export Plug-In . SVG Version: 6.00 Build 0)  -->
<svg version="1.1" id="Layer_1" xmlns="http://www.w3.org/2000/svg" xmlns:xlink="http://www.w3.org/1999/xlink" x="0px" y="0px"
	 viewBox="0 0 64 64" style="enable-background:new 0 0 64 64;" xml:space="preserve">
<style type="text/css">
	.st0{fill:#FFFFFF;}
	.st1{fill:#00CFFF;}
</style>
<path class="st0" d="M17-5.8"/>
<g>
	<g>
		<path class="st1" d="M11.8,16.1c12.2,5.7,26.9,5,38.4-2.2c2.7-1.7,0.2-6-2.5-4.3c-9.9,6.2-22.8,7.2-33.3,2.2
			c-1.2-0.6-2.7-0.3-3.4,0.9C10.3,13.7,10.6,15.5,11.8,16.1L11.8,16.1z"/>
	</g>
</g>
<g>
	<g>
		<path class="st1" d="M29.2,8.9C29.3,9,29.3,9,29.4,9.1c0.3,0.3-0.2-0.4-0.1-0.1c0.1,0.1,0.3,0.6,0.2,0.2c-0.2-0.4,0,0.2,0.1,0.4
			c0,0.1,0,0.2,0.1,0.3c0.1,0.3,0-0.2,0-0.2c0,0.4,0.1,0.8,0.1,1.2s0,0.9,0,1.3c0,0.4-0.1,0.9-0.1,1.3c0-0.1,0.1-0.6,0-0.2
			c0,0.1,0,0.2-0.1,0.3c0,0.2-0.1,0.4-0.2,0.6c-0.1,0.2-0.1,0.4-0.2,0.5c-0.1,0.3,0.3-0.5,0.1-0.2c0,0.1-0.1,0.2-0.1,0.2
			c0,0.1-0.1,0.2-0.1,0.2c-0.2,0.3,0.1-0.1,0.1-0.2c-0.2,0.1-0.3,0.3-0.5,0.5c-1,0.9-1,2.7,0,3.5c1.1,1,2.5,0.9,3.5,0
			c1.9-1.7,2.4-4.3,2.5-6.7c0.1-2.3,0-5.1-1.9-6.7c-1-0.9-2.6-1-3.5,0C28.3,6.3,28.1,8,29.2,8.9L29.2,8.9z"/>
	</g>
</g>
<g>
	<g>
		<path class="st1" d="M21.8,19.1c0.9,1.1,1.3,2.7,1.8,4c0.6,1.4,1.3,2.8,2.1,4.1c1.6,2.7,3.6,5.2,6,7.2c2.5,2.1,5.3,3.7,8.5,4.7
			c1.4,0.4,3.1,0.9,4.6,0.8c2.5-0.2,3.8-3.1,1.9-4.9c-2.3-2.2-5.9,1.3-3.5,3.5l0.1,0.1c-0.2-0.6-0.5-1.2-0.7-1.8c0,0.1,0,0.1,0,0.2
			c0.1-0.4,0.2-0.8,0.3-1.3c0,0.1-0.1,0.1-0.1,0.2c0.3-0.3,0.6-0.6,0.9-0.9c-0.1,0-0.1,0.1-0.2,0.1c0.4-0.1,0.8-0.2,1.3-0.3
			c-1,0.1-2.2-0.3-3.2-0.6s-2-0.7-3-1.2c-2.2-1.2-4-2.7-5.7-4.5c-1.6-1.8-2.9-3.8-3.9-5.9c-1.2-2.4-1.9-5-3.6-7.1
			c-0.8-1.1-2.7-0.9-3.5,0C20.8,16.6,21,18.1,21.8,19.1L21.8,19.1z"/>
	</g>
</g>
<g>
	<g>
		<path class="st1" d="M36.7,16.9c1,4.4-0.4,8.8-2.4,12.7c-2,4-4.6,7.7-7.5,11.1C21.2,47.5,14.5,53.4,7,58.1c-2.7,1.7-0.2,6,2.5,4.3
			c6.4-4,12.4-8.9,17.5-14.5c5.2-5.6,10.1-12,13-19.1c1.7-4.2,2.4-8.8,1.4-13.3C40.8,12.4,36,13.7,36.7,16.9L36.7,16.9z"/>
	</g>
</g>
</svg>
