<?xml version="1.0" encoding="utf-8"?>
<!-- Generator: Adobe Illustrator 24.0.1, SVG Export Plug-In . SVG Version: 6.00 Build 0)  -->
<svg version="1.1" id="Layer_1" xmlns="http://www.w3.org/2000/svg" xmlns:xlink="http://www.w3.org/1999/xlink" x="0px" y="0px"
	 viewBox="0 0 64 64" style="enable-background:new 0 0 64 64;" xml:space="preserve">
<style type="text/css">
	.st0{fill:none;}
	.st1{fill:#403515;stroke:#595859;stroke-miterlimit:10;}
	.st2{fill:#FFFFFF;stroke:#595859;stroke-miterlimit:10;}
	.st3{fill:#FEE600;stroke:#666666;stroke-miterlimit:10;}
</style>
<line class="st0" x1="87.7" y1="-7.4" x2="87.7" y2="-7.4"/>
<path class="st1" d="M48.5,45.4h-33c-0.3,0-0.6-0.3-0.6-0.6v-33c0-0.3,0.3-0.6,0.6-0.6h33c0.3,0,0.6,0.3,0.6,0.6v33
	C49.1,45.1,48.8,45.4,48.5,45.4z"/>
<path class="st2" d="M46,48.7H17.2c-0.3,0-0.6-0.3-0.6-0.6V15.3c0-0.3,0.3-0.6,0.6-0.6H46c0.3,0,0.6,0.3,0.6,0.6v32.8
	C46.6,48.4,46.4,48.7,46,48.7z"/>
<path class="st2" d="M46.4,50.1H17.6c-0.3,0-0.6-0.3-0.6-0.6V16.7c0-0.3,0.3-0.6,0.6-0.6h28.9c0.3,0,0.6,0.3,0.6,0.6v32.8
	C47,49.8,46.8,50.1,46.4,50.1z"/>
<path class="st2" d="M46.4,51.5H17.6c-0.3,0-0.6-0.3-0.6-0.6V18.2c0-0.3,0.3-0.6,0.6-0.6h28.9c0.3,0,0.6,0.3,0.6,0.6v32.8
	C47,51.2,46.8,51.5,46.4,51.5z"/>
<path class="st2" d="M46.4,52.8H17.6c-0.3,0-0.6-0.3-0.6-0.6V19.5c0-0.3,0.3-0.6,0.6-0.6h28.9c0.3,0,0.6,0.3,0.6,0.6v32.8
	C47,52.5,46.8,52.8,46.4,52.8z"/>
<path class="st3" d="M48.5,52.8h-33c-0.3,0-0.6-0.3-0.6-0.6V29.4c0-3.7,3-6.7,6.7-6.7h20c4.2,0,7.5,3.4,7.5,7.5v21.9
	C49.1,52.5,48.8,52.8,48.5,52.8z"/>
</svg>
