<?xml version="1.0" encoding="utf-8"?>
<!-- Generator: Adobe Illustrator 24.0.1, SVG Export Plug-In . SVG Version: 6.00 Build 0)  -->
<svg version="1.1" id="Layer_1" xmlns="http://www.w3.org/2000/svg" xmlns:xlink="http://www.w3.org/1999/xlink" x="0px" y="0px"
	 viewBox="0 0 64 64" style="enable-background:new 0 0 64 64;" xml:space="preserve">
<style type="text/css">
	.st0{fill:#FFFFFF;}
	.st1{fill:#666666;stroke:#474747;stroke-miterlimit:10;}
	.st2{fill:#40FFE8;stroke:#474747;stroke-miterlimit:10;}
	.st3{fill:#DA80FF;}
	.st4{fill:#FFFF00;}
	.st5{fill:#F7F7F7;}
	.st6{fill:none;stroke:#474747;stroke-miterlimit:10;}
</style>
<path class="st0" d="M17-5.8"/>
<g id="Layer_2">
	<path class="st1" d="M28.9,50.2c-1.7,1.6,0.1,4.3-1.2,7.1c-0.7,1.6-2.5,3.2-6.5,4.3c6.2,0,12.3,0,18.5,0c-1.5-0.8-3.5-2.1-4.4-4.3
		c-1.4-3.1,0.2-5.6-1.5-7.1C32.6,49.1,30.1,49,28.9,50.2z"/>
</g>
<path class="st2" d="M53.8,50.2H10.2c-4.4,0-7.9-3.5-7.9-7.9V15.9c0-4.4,3.5-7.9,7.9-7.9h43.7c4.4,0,7.9,3.5,7.9,7.9v26.4
	C61.7,46.6,58.2,50.2,53.8,50.2z"/>
<path class="st3" d="M52.6,48.2h-39c-3,0-5.4-2.4-5.4-5.4v0c0-3,2.4-5.4,5.4-5.4h39c3,0,5.4,2.4,5.4,5.4v0
	C58,45.8,55.6,48.2,52.6,48.2z"/>
<path class="st4" d="M30.3,22.3h-6.7c-2,0-3.7-1.7-3.7-3.7v-3.8c0-2,1.7-3.7,3.7-3.7h6.7c2,0,3.7,1.7,3.7,3.7v3.8
	C34,20.7,32.4,22.3,30.3,22.3z"/>
<path class="st5" d="M16.7,46.3h-2.2c-2,0-3.7-1.7-3.7-3.7v-0.2c0-2,1.7-3.7,3.7-3.7h2.2c2,0,3.7,1.7,3.7,3.7v0.2
	C20.4,44.7,18.8,46.3,16.7,46.3z"/>
<path class="st5" d="M27.9,46.3h-2.2c-2,0-3.7-1.7-3.7-3.7v-0.2c0-2,1.7-3.7,3.7-3.7h2.2c2,0,3.7,1.7,3.7,3.7v0.2
	C31.6,44.7,29.9,46.3,27.9,46.3z"/>
<path class="st5" d="M39.1,46.3h-2.2c-2,0-3.7-1.7-3.7-3.7v-0.2c0-2,1.7-3.7,3.7-3.7h2.2c2,0,3.7,1.7,3.7,3.7v0.2
	C42.7,44.7,41.1,46.3,39.1,46.3z"/>
<path class="st5" d="M50.6,46.3h-2.2c-2,0-3.7-1.7-3.7-3.7v-0.2c0-2,1.7-3.7,3.7-3.7h2.2c2,0,3.7,1.7,3.7,3.7v0.2
	C54.3,44.7,52.6,46.3,50.6,46.3z"/>
<line class="st6" x1="21.1" y1="25.5" x2="23.7" y2="36.4"/>
<line class="st6" x1="32.2" y1="25.5" x2="28.9" y2="36.4"/>
</svg>
