<?xml version="1.0" encoding="utf-8"?>
<!-- Generator: Adobe Illustrator 24.0.1, SVG Export Plug-In . SVG Version: 6.00 Build 0)  -->
<svg version="1.1" id="Layer_1" xmlns="http://www.w3.org/2000/svg" xmlns:xlink="http://www.w3.org/1999/xlink" x="0px" y="0px"
	 viewBox="0 0 64 64" style="enable-background:new 0 0 64 64;" xml:space="preserve">
<style type="text/css">
	.st0{fill:#00C3FF;}
	.st1{fill:none;stroke:#54C9EF;stroke-miterlimit:10;}
</style>
<g transform="translate(1 1)">
	<g>
		<path class="st0" d="M26.6,37.9l-8.9-8l8.9-8c0.8-0.8,0.8-2.2,0-2.9L16.1,9.5c-1.1-1-2.9-0.1-2.9,1.5v14.4l-5.8-6.2
			c-0.7-0.7-1.8-0.7-2.5,0S4.3,21,5,21.8l7.5,8.1L5,38c-0.7,0.7-0.7,1.9,0,2.7c0.7,0.7,1.8,0.7,2.5,0l5.8-6.2v14.4
			c0,1.6,1.7,2.5,2.9,1.5l10.5-9.5C27.5,40.1,27.5,38.7,26.6,37.9z M16.7,15l6,5.4l-6,5.4L16.7,15L16.7,15z M16.7,44.8V33.9l6,5.4
			L16.7,44.8z"/>
	</g>
</g>
<path class="st1" d="M32.4,7c13.7,0,24.8,11.1,24.8,24.8S46.1,56.7,32.4,56.7"/>
<path class="st1" d="M33,11.1c10.4,0,18.8,9.4,18.8,20.9S43.4,52.9,33,52.9"/>
<path class="st1" d="M32.4,17.3c8,0,14.5,6.5,14.5,14.5s-6.5,14.5-14.5,14.5"/>
</svg>
