<?xml version="1.0" encoding="utf-8"?>
<!-- Generator: Adobe Illustrator 24.0.1, SVG Export Plug-In . SVG Version: 6.00 Build 0)  -->
<svg version="1.1" id="Layer_1" xmlns="http://www.w3.org/2000/svg" xmlns:xlink="http://www.w3.org/1999/xlink" x="0px" y="0px"
	 viewBox="0 0 64 64" style="enable-background:new 0 0 64 64;" xml:space="preserve">
<style type="text/css">
	.st0{fill:none;}
	.st1{fill:#FFC82E;}
</style>
<line class="st0" x1="87.7" y1="-7.4" x2="87.7" y2="-7.4"/>
<path class="st1" d="M57.7,28.3c-0.1-0.8-1-1.3-1.7-1.3c-2.4,0-4.6-1.4-5.5-3.7c-0.9-2.3-0.3-4.9,1.5-6.6c0.6-0.5,0.6-1.4,0.2-2
	c-1.3-1.6-2.7-3-4.2-4.3c-0.6-0.5-1.5-0.4-2,0.2c-1.6,1.8-4.5,2.4-6.7,1.5c-2.3-1-3.8-3.3-3.6-5.8c0-0.8-0.5-1.5-1.3-1.6
	c-2-0.2-4-0.2-6,0C27.5,4.8,27,5.5,27,6.2c0.1,2.5-1.4,4.8-3.7,5.7c-2.2,0.9-5,0.2-6.6-1.5c-0.5-0.6-1.4-0.6-2-0.2
	c-1.6,1.3-3.1,2.7-4.3,4.3c-0.5,0.6-0.4,1.5,0.2,2c1.9,1.7,2.5,4.4,1.5,6.7c-0.9,2.2-3.2,3.6-5.8,3.6c-0.8,0-1.5,0.5-1.5,1.3
	c-0.2,2-0.2,4,0,6.1c0.1,0.8,1,1.3,1.7,1.3c2.3-0.1,4.6,1.4,5.5,3.7c0.9,2.3,0.3,4.9-1.5,6.6c-0.6,0.5-0.6,1.4-0.2,2
	c1.2,1.6,2.7,3,4.2,4.3c0.6,0.5,1.5,0.4,2-0.2c1.6-1.8,4.5-2.4,6.7-1.5c2.3,1,3.8,3.3,3.6,5.8c0,0.8,0.5,1.5,1.3,1.6
	c1,0.1,2.1,0.2,3.1,0.2c1,0,1.9-0.1,2.9-0.2c0.8-0.1,1.4-0.8,1.3-1.5c-0.1-2.5,1.4-4.8,3.7-5.7c2.2-0.9,5-0.2,6.6,1.5
	c0.5,0.6,1.4,0.6,2,0.2c1.6-1.3,3-2.7,4.3-4.3c0.5-0.6,0.4-1.5-0.2-2c-1.8-1.7-2.5-4.4-1.5-6.7c0.9-2.2,3.1-3.6,5.5-3.6h0.3
	c0.8,0.1,1.5-0.5,1.6-1.3C58,32.3,58,30.3,57.7,28.3z M31.2,46.6c-8.5,0-15.4-6.9-15.4-15.4c0-8.5,6.9-15.4,15.4-15.4
	s15.4,6.9,15.4,15.4c0,2.9-0.8,5.6-2.2,7.9l-6.7-6.7c0.5-1.1,0.7-2.4,0.7-3.7c0-2.5-1-4.9-2.8-6.7c-1.8-1.8-4.1-2.8-6.7-2.8
	c-0.8,0-1.7,0.1-2.5,0.3c-0.3,0.1-0.6,0.4-0.7,0.7c-0.1,0.4,0,0.7,0.3,1c0,0,3.3,3.3,4.4,4.5c0.1,0.1,0.1,0.4,0.1,0.5l0,0.1
	c-0.1,1.2-0.3,2.7-0.5,3.3c0,0,0,0-0.1,0.1c0,0,0,0-0.1,0.1c-0.6,0.2-2.1,0.4-3.3,0.5l0,0l-0.1,0c0,0,0,0-0.1,0
	c-0.1,0-0.3,0-0.5-0.2c-1.1-1.1-4.4-4.3-4.4-4.3c-0.3-0.3-0.6-0.3-0.8-0.3c-0.5,0-0.9,0.3-1,0.8c-0.9,3.3,0.1,6.8,2.4,9.1
	c1.8,1.8,4.1,2.8,6.7,2.8c1.3,0,2.5-0.3,3.7-0.7l6.8,6.8C37.1,45.7,34.3,46.6,31.2,46.6z"/>
</svg>
