<?xml version="1.0" encoding="utf-8"?>
<!-- Generator: Adobe Illustrator 24.0.1, SVG Export Plug-In . SVG Version: 6.00 Build 0)  -->
<svg version="1.1" id="Layer_1" xmlns="http://www.w3.org/2000/svg" xmlns:xlink="http://www.w3.org/1999/xlink" x="0px" y="0px"
	 viewBox="0 0 64 64" style="enable-background:new 0 0 64 64;" xml:space="preserve">
<style type="text/css">
	.st0{fill:none;}
	.st1{fill:#8C8C8C;stroke:#3F3F3F;stroke-miterlimit:10;}
	.st2{fill:#00DBFF;stroke:#3F3F3F;stroke-miterlimit:10;}
	.st3{fill:#19A500;stroke:#353535;stroke-miterlimit:10;}
	.st4{fill:#FFE600;}
</style>
<line class="st0" x1="87.7" y1="-7.4" x2="87.7" y2="-7.4"/>
<path class="st1" d="M48.1,53.2H15.7c-2.9,0-5.3-2.4-5.3-5.3V13c0-2.9,2.4-5.3,5.3-5.3h32.4c2.9,0,5.3,2.4,5.3,5.3v34.9
	C53.4,50.8,51,53.2,48.1,53.2z"/>
<path class="st2" d="M51.5,15.3v30.3c0,2.9-2.4,5.3-5.3,5.3H17.7c-2.9,0-5.3-2.4-5.3-5.3V15.3c0-2.9,2.4-5.3,5.3-5.3h28.5
	C49.1,10,51.5,12.3,51.5,15.3z"/>
<path class="st3" d="M51.5,36.3v9.3c0,2.9-2.4,5.3-5.3,5.3H17.7c-2.9,0-5.3-2.4-5.3-5.3v-7.8l11-12.1L38,43.1L51.5,36.3z"/>
<circle class="st4" cx="39.2" cy="22.4" r="7.2"/>
</svg>
