<?xml version="1.0" encoding="utf-8"?>
<!-- Generator: Adobe Illustrator 24.0.1, SVG Export Plug-In . SVG Version: 6.00 Build 0)  -->
<svg version="1.1" id="Layer_1" xmlns="http://www.w3.org/2000/svg" xmlns:xlink="http://www.w3.org/1999/xlink" x="0px" y="0px"
	 viewBox="0 0 64 64" style="enable-background:new 0 0 64 64;" xml:space="preserve">
<style type="text/css">
	.st0{display:none;}
	.st1{display:inline;opacity:0.25;enable-background:new    ;}
	.st2{display:inline;fill:url(#SVGID_1_);}
	.st3{display:inline;fill:url(#SVGID_2_);}
	.st4{display:inline;fill:url(#SVGID_3_);}
	.st5{display:inline;fill:url(#SVGID_4_);}
	
		.st6{display:inline;fill:url(#SVGID_5_);stroke:#0D224D;stroke-width:0.6184;stroke-linecap:round;stroke-linejoin:round;stroke-miterlimit:7.3544;}
	.st7{display:inline;}
	.st8{opacity:0.8;enable-background:new    ;}
	.st9{fill:#4678CC;}
	.st10{opacity:0.3;fill:#FFFFFF;enable-background:new    ;}
	.st11{opacity:0.2;enable-background:new    ;}
	.st12{fill:#FFFFFF;}
	.st13{opacity:0.45;enable-background:new    ;}
	.st14{fill:#4397EE;}
	.st15{opacity:0.8542;fill:#FFFFFF;enable-background:new    ;}
	.st16{display:none;opacity:0.98;fill:#FFFFFF;stroke:#3F3F3F;stroke-width:5.000000e-02;stroke-miterlimit:10;}
	.st17{fill:#00AAFF;}
	.st18{fill:#FF9D00;}
</style>
<g transform="matrix(.69746 0 0 .69746 2.5613 2.566)" class="st0">
	<g class="st1">
		<circle cx="42.2" cy="42.2" r="30"/>
	</g>
	
		<linearGradient id="SVGID_1_" gradientUnits="userSpaceOnUse" x1="-518.3832" y1="294.9381" x2="-518.3832" y2="317.6981" gradientTransform="matrix(1.8386 0 0 1.8386 995.2862 -543.0656)">
		<stop  offset="0" style="stop-color:#CCCCCC"/>
		<stop  offset="1" style="stop-color:#EBEBEB"/>
	</linearGradient>
	<circle class="st2" cx="42.2" cy="42.2" r="43"/>
	
		<linearGradient id="SVGID_2_" gradientUnits="userSpaceOnUse" x1="-523.428" y1="871.0513" x2="-523.428" y2="886.9213" gradientTransform="matrix(1.8607 0 0 1.8607 1016.134 -1608.9486)">
		<stop  offset="0" style="stop-color:#666666"/>
		<stop  offset="1" style="stop-color:#9F9F9F"/>
	</linearGradient>
	<circle class="st3" cx="42.2" cy="42.2" r="30.1"/>
	
		<linearGradient id="SVGID_3_" gradientUnits="userSpaceOnUse" x1="-518.3832" y1="881.0189" x2="-518.3832" y2="893.7189" gradientTransform="matrix(1.8386 0 0 1.8386 995.2862 -1601.6187)">
		<stop  offset="0" style="stop-color:#333333"/>
		<stop  offset="1" style="stop-color:#666666"/>
	</linearGradient>
	<circle class="st4" cx="42.2" cy="42.2" r="24"/>
	
		<linearGradient id="SVGID_4_" gradientUnits="userSpaceOnUse" x1="-518.3884" y1="883.1796" x2="-518.3884" y2="893.7711" gradientTransform="matrix(1.8386 0 0 1.8386 995.2862 -1601.6187)">
		<stop  offset="0" style="stop-color:#000000"/>
		<stop  offset="1" style="stop-color:#121212"/>
	</linearGradient>
	<path class="st5" d="M42.2,22.2c11,0.8,20,9,20,20s-9,20-20,20s-20.5-9-20-20C22.7,31,33.1,21.6,42.2,22.2z"/>
	
		<radialGradient id="SVGID_5_" cx="3092.5266" cy="7008.0293" r="38.474" gradientTransform="matrix(0.1806 0 0 0.1516 -516.1766 -1020.4121)" gradientUnits="userSpaceOnUse">
		<stop  offset="0" style="stop-color:#2561DB;stop-opacity:0.9412"/>
		<stop  offset="1" style="stop-color:#0D0D0D"/>
	</radialGradient>
	<circle class="st6" cx="42.2" cy="42.2" r="15.6"/>
	<g class="st7">
		<g class="st8">
			<path class="st9" d="M28.9,34.7l5.5,3.1c0,0,1.7-1.8,2.9-2.6c1.3-0.9,4.2-1.6,4.1-1.4l-0.9-6.7C40.6,27.1,34.4,26.5,28.9,34.7
				L28.9,34.7z"/>
		</g>
		<g class="st8">
			<path class="st9" d="M28.3,35.7l5.9,2.6c0,0-0.3,0.8-0.5,1.6c-0.1,0.8,0,1.5,0,1.5l-6.8-0.1C26.9,41.3,27.2,37.4,28.3,35.7
				L28.3,35.7z"/>
		</g>
		<g transform="translate(0,-280.07)">
			<g>
				
					<ellipse transform="matrix(0.7557 -0.6549 0.6549 0.7557 -198.0957 100.0785)" class="st10" cx="35.1" cy="315.6" rx="1.7" ry="1"/>
			</g>
			<g>
				
					<ellipse transform="matrix(0.7557 -0.6549 0.6549 0.7557 -199.7177 102.4058)" class="st10" cx="37.4" cy="318.9" rx="0.7" ry="0.4"/>
			</g>
			<g class="st11">
				
					<ellipse transform="matrix(0.8312 -0.556 0.556 0.8312 -175.5926 82.2828)" class="st12" cx="47.7" cy="330.3" rx="6.9" ry="4.3"/>
			</g>
			<g>
				
					<ellipse transform="matrix(0.7557 -0.6549 0.6549 0.7557 -204.1162 109.8148)" class="st10" cx="45.1" cy="328.5" rx="1.3" ry="0.8"/>
			</g>
			<g>
				
					<ellipse transform="matrix(0.7557 -0.6549 0.6549 0.7557 -205.8501 113.1975)" class="st12" cx="48.8" cy="332.5" rx="2.8" ry="1.7"/>
			</g>
		</g>
		<g transform="translate(0,-280.07)">
			<g class="st13">
				
					<ellipse transform="matrix(0.8614 -0.5079 0.5079 0.8614 -160.199 69.3096)" class="st14" cx="46.9" cy="328.2" rx="7.9" ry="4.9"/>
			</g>
			<g>
				
					<ellipse transform="matrix(0.7557 -0.6549 0.6549 0.7557 -198.2966 100.36)" class="st15" cx="35.4" cy="316" rx="0.9" ry="0.5"/>
			</g>
			<g>
				
					<ellipse transform="matrix(0.7557 -0.6549 0.6549 0.7557 -201.4986 105.5946)" class="st10" cx="40.8" cy="322.9" rx="0.5" ry="0.3"/>
			</g>
		</g>
	</g>
</g>
<path class="st16" d="M44.5,45.4H15.2c-1.5,0-2.7-1.2-2.7-2.7V32.5c0-7.2,5.9-13.1,13.1-13.1h8.6c7.3,0,13.2,5.9,13.2,13.2v10
	C47.3,44.1,46.1,45.4,44.5,45.4z"/>
<path class="st16" d="M44.5,46.1H15.1c-1.5,0-2.7-1.2-2.7-2.7V33.2c0-7.2,5.9-13.1,13.1-13.1H34c7.3,0,13.2,5.9,13.2,13.2v10
	C47.2,44.8,46,46.1,44.5,46.1z"/>
<path class="st17" d="M59.7,32c0,15.3-12.4,27.7-27.7,27.7C16.7,59.7,4.3,47.3,4.3,32c0-6.1,2-11.7,5.3-16.3
	c5-7,13.2-11.5,22.5-11.5c11.1,0,20.6,6.5,25.1,15.9C58.8,23.8,59.7,27.8,59.7,32z"/>
<path class="st18" d="M59.7,32c0,15.3-12.4,27.7-27.7,27.7C16.7,59.7,4.3,47.3,4.3,32c0-6.1,2-11.7,5.3-16.3
	c0.5,0.8,1.2,1.6,2.1,2.1c2-0.7,4.4-0.8,7.2-0.1l0,0c1.1-1.6,5-4.5,8.2-3.5c-1.7,0.9-3.6,3.9-4.2,6.1c0.1,0.2,0.1,0.3,0.3,0.5
	c0.1,0.1,0.2,0.3,0.3,0.5c0.5,0.7,1.4,1.5,2.7,1.5c4.8,0,5.1,0.3,5.1,0.9c0,0.8-0.1,1.4-0.3,1.8c-0.3,0.6-0.8,1.2-1.2,1.5
	c-0.3,0.3-4.8,2.7-5,3.4c0,0,0,0,0,0c0.1,0.2,0.7,2.7-0.1,4.2c-0.7-0.5-1.9-1.1-2.3-1.2c0,0-0.1,0-0.1,0c0.1,0.1,0.3,0.4,0.3,0.5
	c-0.1,0-0.3-0.2-0.7-0.3c-0.8,0.5-1.2,1.4-1.2,2.1c0,0.9-0.2,2.4,2.8,4.2c0,0-0.5-0.1-0.4-0.1c0.3,0.2,1.4,0.7,2,0.9
	c0.2,0.1-0.7-0.1-0.5,0c0.2,0.1,0.4,0.2,0.6,0.3c3.1,1.3,5-0.6,7.3-1.1c2.9-0.8,5.1,0.7,6,1.7c0.9,1.1,0.1,2.2-1,2
	c-1.1-0.3-2.4,0.8-4.6,2.3c-2.1,1.5-5.8,2.1-9.3,1.3c0.9,0.8,2.3,2.4,3.5,2.8c1.3,0.4,3.1,0.3,3.9,1.1c-0.8-0.5-1.7-0.2-2.4-0.1
	c4.5,2.3,7.9,1.7,8.7,1.6c1.9-0.3,2.8-1,3.1-1.2c-0.1,0.5-0.4,1-0.8,1.1c0.4,0.3,1.2-0.7,2.1-1.7c0.3-0.3,0.5-0.5,0.7-0.7
	c0,0-0.4,0.5-0.4,0.6c0.3-0.2,0.4-0.4,0.6-0.6c0.4-0.5,0.9-0.7,0.9-0.7c0.1,0.3,0.1,0.7,0,1.1c0,0,0.1,0.1,0.3,0.1
	c0.6,0.1,2-0.8,3.3-3.8c1.8-4,1.9-6.8,1.9-6.8c0.2,0.5,0.6,1.3,0.7,2.4C50.2,39.9,51,38,50,29c0.9,0.8,2.1,3.1,2.8,4.6
	c0.5-9.1-4-15.1-6.6-17.2c1.8,0.1,4.4,1.8,5.9,3.4c-1.4-2.9-3.5-6.2-9.2-10.1c6.5,1.8,11.1,5.9,14.2,10.4
	C58.8,23.8,59.7,27.8,59.7,32z"/>
</svg>
