<?xml version="1.0" encoding="utf-8"?>
<!-- Generator: Adobe Illustrator 24.0.1, SVG Export Plug-In . SVG Version: 6.00 Build 0)  -->
<svg version="1.1" id="Layer_1" xmlns="http://www.w3.org/2000/svg" xmlns:xlink="http://www.w3.org/1999/xlink" x="0px" y="0px"
	 viewBox="0 0 64 64" style="enable-background:new 0 0 64 64;" xml:space="preserve">
<style type="text/css">
	.st0{fill:#FF7900;stroke:#424242;stroke-miterlimit:10;}
	.st1{fill:#FF9D00;stroke:#424242;stroke-miterlimit:10;}
</style>
<path class="st0" d="M5.1,55l-0.3-0.3c-0.2-0.2-0.2-0.6,0-0.9l2.5-2.5l1.1,1.1L6,55C5.8,55.2,5.4,55.2,5.1,55z"/>
<g>
	<path class="st1" d="M48.1,16.9L43,11.8l2.6-2.6c0.5-0.5,1.3-0.5,1.7,0l3.4,3.4c0.5,0.5,0.5,1.3,0,1.7L48.1,16.9z"/>
	<polyline class="st1" points="9.2,43 6.8,51.8 8.1,53 16.9,50.6 	"/>
	<path class="st1" d="M48.3,19.2L16.9,50.6L9.2,43l31.4-31.4c1.1-1.1,2.6-1.2,3.4-0.4l4.6,4.6C49.5,16.6,49.4,18.1,48.3,19.2z"/>
	<path class="st1" d="M48,22l-8.9-8.9l-1.4,1.4l8.9,8.9c0.4,0.4,0.4,1,0,1.4L36,35.5c-0.4,0.4-0.4,1,0,1.4s1,0.4,1.4,0L48,26.3
		C49.2,25.2,49.2,23.2,48,22z"/>
	<path class="st1" d="M59.3,57.7"/>
	<path class="st1" d="M4.9,57.7"/>
</g>
</svg>
