<?xml version="1.0" encoding="utf-8"?>
<!-- Generator: Adobe Illustrator 24.0.1, SVG Export Plug-In . SVG Version: 6.00 Build 0)  -->
<svg version="1.1" id="Layer_1" xmlns="http://www.w3.org/2000/svg" xmlns:xlink="http://www.w3.org/1999/xlink" x="0px" y="0px"
	 viewBox="0 0 64 64" style="enable-background:new 0 0 64 64;" xml:space="preserve">
<style type="text/css">
	.st0{fill:none;}
	.st1{fill:none;stroke:#424242;stroke-miterlimit:10;}
	.st2{fill:#00A4FF;}
	.st3{font-family:'MyriadPro-Regular';}
	.st4{font-size:9px;}
</style>
<line class="st0" x1="87.7" y1="-7.4" x2="87.7" y2="-7.4"/>
<path class="st1" d="M49.8,56.8h-34c-3.5,0-6.3-2.8-6.3-6.3v-34c0-3.5,2.8-6.3,6.3-6.3h34c3.5,0,6.3,2.8,6.3,6.3v34
	C56,54,53.2,56.8,49.8,56.8z"/>
<polyline class="st1" points="12.5,20.6 18.5,20.6 18.5,14.7 "/>
<line class="st1" x1="18.9" y1="22.7" x2="18.9" y2="28.6"/>
<line class="st1" x1="18.8" y1="34.1" x2="18.8" y2="43.2"/>
<line class="st1" x1="19" y1="49.1" x2="19" y2="54.1"/>
<line class="st1" x1="13.2" y1="47" x2="23.9" y2="47"/>
<line class="st1" x1="15.2" y1="32.5" x2="26.4" y2="32.5"/>
<line class="st1" x1="25.8" y1="22.3" x2="25.8" y2="30.2"/>
<path class="st1" d="M23.1,20.6c2.6,0,5.2,0,7.8,0c1.9,0,1.6-0.6,1.6-2.4c0-1,0-1.9,0-2.9"/>
<line class="st1" x1="32.7" y1="23.2" x2="32.7" y2="30.2"/>
<line class="st1" x1="26.5" y1="46.8" x2="42.3" y2="46.8"/>
<line class="st1" x1="30.8" y1="32.8" x2="45.5" y2="32.8"/>
<line class="st1" x1="28.8" y1="35" x2="28.8" y2="44"/>
<line class="st1" x1="42.1" y1="35.6" x2="42.1" y2="44.3"/>
<line class="st1" x1="35.8" y1="21.3" x2="52.1" y2="21.3"/>
<line class="st1" x1="44.7" y1="12.9" x2="44.7" y2="19.4"/>
<line class="st1" x1="44.1" y1="24.6" x2="44.1" y2="31.3"/>
<line class="st1" x1="48.5" y1="35.3" x2="55" y2="35.3"/>
<line class="st1" x1="30.9" y1="49.1" x2="30.9" y2="55.5"/>
<line class="st1" x1="43.1" y1="49.4" x2="43.1" y2="55.2"/>
<polyline class="st1" points="45.2,46.4 55.9,46.2 52.9,46.2 "/>
<rect x="11.5" y="23.8" class="st0" width="8.3" height="9.6"/>
<text transform="matrix(1 0 0 1 11.5303 30.18)" class="st2 st3 st4">4</text>
<rect x="24.6" y="11.7" class="st0" width="8.3" height="9.6"/>
<text transform="matrix(1 0 0 1 24.6324 18.1181)" class="st2 st3 st4">7</text>
<rect x="33.8" y="36.7" class="st0" width="8.3" height="9.6"/>
<text transform="matrix(1 0 0 1 33.7842 43.0714)" class="st2 st3 st4">3</text>
<rect x="34.4" y="48.3" class="st0" width="8.3" height="9.6"/>
<text transform="matrix(1 0 0 1 34.4308 54.6627)" class="st2 st3 st4">5</text>
<rect x="47.3" y="26.1" class="st0" width="8.3" height="9.6"/>
<text transform="matrix(1 0 0 1 47.29 32.4695)" class="st2 st3 st4">6</text>
<rect x="47.9" y="37.7" class="st0" width="8.3" height="9.6"/>
<text transform="matrix(1 0 0 1 47.9365 44.0608)" class="st2 st3 st4">8</text>
</svg>
