<?xml version="1.0" encoding="utf-8"?>
<!-- Generator: Adobe Illustrator 24.0.1, SVG Export Plug-In . SVG Version: 6.00 Build 0)  -->
<svg version="1.1" id="Layer_1" xmlns="http://www.w3.org/2000/svg" xmlns:xlink="http://www.w3.org/1999/xlink" x="0px" y="0px"
	 viewBox="0 0 64 64" style="enable-background:new 0 0 64 64;" xml:space="preserve">
<style type="text/css">
	.st0{fill:#5C5C5C;}
</style>
<g>
	<g>
		<path class="st0" d="M27.3,12.7c0.3,3.4-0.7,7-1.7,10.2c-0.9,3.2-2.1,6.3-3.6,9.3c-3,6-7,11.5-11.8,16.2c-2.3,2.2,1.2,5.8,3.5,3.5
			c5.2-5,9.6-11,12.8-17.5c1.6-3.2,2.9-6.6,3.9-10.1c1.1-3.6,2.2-7.8,1.9-11.6c-0.1-1.3-1.1-2.5-2.5-2.5
			C28.6,10.2,27.2,11.3,27.3,12.7L27.3,12.7z"/>
	</g>
</g>
<g>
	<g>
		<path class="st0" d="M28,13.3c0.9,3.9,1.3,7.8,2.4,11.6c1.1,3.6,2.4,7.1,4.1,10.4c1.6,3,3.5,5.7,5.7,8.3c1.1,1.3,2.4,2.5,3.7,3.7
			c1.3,1.1,2.7,2.1,3.9,3.4c0.9,1,2.6,0.9,3.5,0c1-1,0.9-2.5,0-3.5c-1.1-1.3-2.4-2.2-3.7-3.2c-1.2-1-2.4-2.2-3.4-3.3
			c-2.1-2.3-3.9-4.9-5.4-7.7c-1.6-3-2.7-6.2-3.7-9.4c-1.1-3.7-1.5-7.6-2.4-11.4C32.1,8.8,27.3,10.2,28,13.3L28,13.3z"/>
	</g>
</g>
<g>
	<g>
		<path class="st0" d="M24.8,35c3.7,0.2,7.8,0.1,11-2.1c0.7-0.5,1.2-1.2,1.2-2.2c0-0.8-0.5-1.8-1.2-2.2c0,0-0.1,0-0.1,0
			c-1.2-0.6-2.8-0.4-3.4,0.9c-0.6,1.1-0.4,2.8,0.9,3.4c0,0,0.1,0,0.1,0c0-1.4,0-2.9,0-4.3c-0.3,0.2-0.7,0.5-1.1,0.7
			c-0.1,0-0.2,0.1-0.3,0.1c-0.2,0.1-0.2,0.1,0.2-0.1c-0.2,0-0.4,0.2-0.6,0.2c-0.4,0.1-0.8,0.2-1.2,0.3c-0.2,0-0.4,0.1-0.6,0.1
			c-0.1,0-0.2,0-0.3,0c0.4,0,0.5-0.1,0.3,0c-1.6,0.2-3.3,0.1-4.9,0.1c-1.3-0.1-2.6,1.2-2.5,2.5C22.4,33.9,23.4,34.9,24.8,35L24.8,35
			z"/>
	</g>
</g>
</svg>
