<?xml version="1.0" encoding="utf-8"?>
<!-- Generator: Adobe Illustrator 24.0.1, SVG Export Plug-In . SVG Version: 6.00 Build 0)  -->
<svg version="1.1" id="Layer_1" xmlns="http://www.w3.org/2000/svg" xmlns:xlink="http://www.w3.org/1999/xlink" x="0px" y="0px"
	 viewBox="0 0 64 64" style="enable-background:new 0 0 64 64;" xml:space="preserve">
<style type="text/css">
	.st0{fill:none;}
	.st1{fill:#ED1E29;}
	.st2{fill:#FFFFFF;}
</style>
<line class="st0" x1="87.7" y1="-7.4" x2="87.7" y2="-7.4"/>
<path class="st1" d="M47,55.1H18.2c-4.6,0-8.3-3.7-8.3-8.3V17.9c0-4.6,3.7-8.3,8.3-8.3H47c4.6,0,8.3,3.7,8.3,8.3v28.8
	C55.3,51.3,51.6,55.1,47,55.1z"/>
<path class="st2" d="M34.7,25.9c-1.5,0-2.3,0.8-2.7,1.4c-0.4-0.6-1.2-1.4-2.7-1.4c-1.8,0-3.7,1.3-3.7,4.1c0,1.1,0.2,2,0.7,2.9
	c0.5,0.9,1.6,2.1,3.2,3.4c0.6,0.5,1.2,1,1.6,1.2c0.7,0.5,0.8,0.5,0.8,0.5c0,0,0,0,0,0c0.1,0,0.1,0,0.8-0.5c0.4-0.3,1-0.7,1.6-1.2
	c1.6-1.3,2.7-2.5,3.2-3.4c0.5-1,0.7-1.8,0.7-2.9C38.3,27.2,36.4,25.9,34.7,25.9z"/>
<path class="st2" d="M23,13.7c-1.5,0-2.3,0.8-2.7,1.4c-0.4-0.6-1.2-1.4-2.7-1.4c-1.8,0-3.7,1.3-3.7,4.1c0,1.1,0.2,2,0.7,2.9
	c0.5,0.9,1.6,2.1,3.2,3.4c0.6,0.5,1.2,1,1.6,1.2c0.7,0.5,0.8,0.5,0.8,0.5c0,0,0,0,0,0c0.1,0,0.1,0,0.8-0.5c0.4-0.3,1-0.7,1.6-1.2
	c1.6-1.3,2.7-2.5,3.2-3.4c0.5-1,0.7-1.8,0.7-2.9C26.7,15,24.8,13.7,23,13.7z"/>
<path class="st2" d="M47.4,38.1c-1.5,0-2.3,0.8-2.7,1.4c-0.4-0.6-1.2-1.4-2.7-1.4c-1.8,0-3.7,1.3-3.7,4.1c0,1.1,0.2,2,0.7,2.9
	c0.5,0.9,1.6,2.1,3.2,3.4c0.6,0.5,1.2,1,1.6,1.2c0.7,0.5,0.8,0.5,0.8,0.5c0,0,0,0,0,0c0.1,0,0.1,0,0.8-0.5c0.4-0.3,1-0.7,1.6-1.2
	c1.6-1.3,2.7-2.5,3.2-3.4c0.5-1,0.7-1.8,0.7-2.9C51,39.4,49.1,38.1,47.4,38.1z"/>
</svg>
