<?xml version="1.0" encoding="utf-8"?>
<!-- Generator: Adobe Illustrator 24.0.1, SVG Export Plug-In . SVG Version: 6.00 Build 0)  -->
<svg version="1.1" id="Layer_1" xmlns="http://www.w3.org/2000/svg" xmlns:xlink="http://www.w3.org/1999/xlink" x="0px" y="0px"
	 viewBox="0 0 64 64" style="enable-background:new 0 0 64 64;" xml:space="preserve">
<style type="text/css">
	.st0{fill:none;}
	.st1{fill-rule:evenodd;clip-rule:evenodd;fill:#231F20;}
	.st2{fill:#282828;}
	.st3{fill:#494949;}
	.st4{opacity:0.4;fill:#C9C9C9;enable-background:new    ;}
</style>
<line class="st0" x1="87.7" y1="-7.4" x2="87.7" y2="-7.4"/>
<g>
	<g>
		<g>
			<g>
				<g>
					<g>
						<rect x="44.6" y="19.4" class="st0" width="15" height="12.6"/>
					</g>
					<rect x="51.1" y="28.7" class="st1" width="1.5" height="2.3"/>
					<rect x="51.1" y="24.5" class="st1" width="1.5" height="2.3"/>
					<rect x="51.1" y="20.4" class="st1" width="1.5" height="2.3"/>
				</g>
			</g>
			<g>
				<g>
					<g>
						<rect x="44.6" y="32" class="st0" width="15" height="12.6"/>
					</g>
					<rect x="51.1" y="41.3" class="st1" width="1.5" height="2.3"/>
					<rect x="51.1" y="37.1" class="st1" width="1.5" height="2.3"/>
					<rect x="51.1" y="33" class="st1" width="1.5" height="2.3"/>
				</g>
			</g>
			<g>
				<g>
					<g>
						<rect x="32" y="44.6" class="st0" width="12.6" height="15"/>
					</g>
					<rect x="32.9" y="51.1" class="st1" width="2.3" height="1.5"/>
					<rect x="37.1" y="51.1" class="st1" width="2.3" height="1.5"/>
					<rect x="41.3" y="51.1" class="st1" width="2.3" height="1.5"/>
				</g>
			</g>
			<g>
				<g>
					<g>
						<rect x="19.4" y="44.6" class="st0" width="12.6" height="15"/>
					</g>
					<rect x="20.3" y="51.1" class="st1" width="2.3" height="1.5"/>
					<rect x="24.5" y="51.1" class="st1" width="2.3" height="1.5"/>
					<rect x="28.7" y="51.1" class="st1" width="2.3" height="1.5"/>
				</g>
			</g>
			<g>
				<g>
					<g>
						<rect x="4.4" y="32" class="st0" width="15" height="12.6"/>
					</g>
					<rect x="11.4" y="32.9" class="st1" width="1.5" height="2.3"/>
					<rect x="11.4" y="37.1" class="st1" width="1.5" height="2.3"/>
					<rect x="11.4" y="41.3" class="st1" width="1.5" height="2.3"/>
				</g>
			</g>
			<g>
				<g>
					<g>
						<rect x="4.4" y="19.4" class="st0" width="15" height="12.6"/>
					</g>
					<rect x="11.4" y="20.3" class="st1" width="1.5" height="2.3"/>
					<rect x="11.4" y="24.5" class="st1" width="1.5" height="2.3"/>
					<rect x="11.4" y="28.7" class="st1" width="1.5" height="2.3"/>
				</g>
			</g>
			<g>
				<g>
					<g>
						<rect x="19.4" y="4.4" class="st0" width="12.6" height="15"/>
					</g>
					<rect x="28.7" y="11.4" class="st1" width="2.3" height="1.5"/>
					<rect x="24.5" y="11.4" class="st1" width="2.3" height="1.5"/>
					<rect x="20.4" y="11.4" class="st1" width="2.3" height="1.5"/>
				</g>
			</g>
			<g>
				<g>
					<g>
						<rect x="32" y="4.4" class="st0" width="12.6" height="15"/>
					</g>
					<rect x="41.3" y="11.4" class="st1" width="2.3" height="1.5"/>
					<rect x="37.1" y="11.4" class="st1" width="2.3" height="1.5"/>
					<rect x="33" y="11.4" class="st1" width="2.3" height="1.5"/>
				</g>
			</g>
			<g>
				<rect x="51.2" y="45.6" class="st1" width="1.5" height="2.5"/>
				<polygon class="st1" points="52.7,52.6 52.7,50.1 51.2,50.1 51.2,51.1 50.2,51.1 50.2,52.6 				"/>
				<rect x="45.7" y="51.1" class="st1" width="2.5" height="1.5"/>
			</g>
			<g>
				<rect x="15.9" y="51.2" class="st1" width="2.5" height="1.5"/>
				<polygon class="st1" points="11.4,52.7 13.9,52.7 13.9,51.2 12.9,51.2 12.9,50.2 11.4,50.2 				"/>
				<rect x="11.4" y="45.7" class="st1" width="1.5" height="2.5"/>
			</g>
			<g>
				<rect x="11.3" y="15.9" class="st1" width="1.5" height="2.5"/>
				<polygon class="st1" points="11.3,11.4 11.3,13.9 12.8,13.9 12.8,12.9 13.8,12.9 13.8,11.4 				"/>
				<rect x="15.8" y="11.4" class="st1" width="2.5" height="1.5"/>
			</g>
			<g>
				<rect x="45.6" y="11.3" class="st1" width="2.5" height="1.5"/>
				<polygon class="st1" points="52.6,11.3 50.1,11.3 50.1,12.8 51.1,12.8 51.1,13.8 52.6,13.8 				"/>
				<rect x="51.1" y="15.8" class="st1" width="1.5" height="2.5"/>
			</g>
		</g>
	</g>
</g>
<circle class="st2" cx="15.7" cy="49.6" r="9.6"/>
<circle class="st3" cx="15.7" cy="49.6" r="6.1"/>
<circle class="st4" cx="14" cy="48.6" r="3.9"/>
</svg>
