<?xml version="1.0" encoding="utf-8"?>
<!-- Generator: Adobe Illustrator 24.0.1, SVG Export Plug-In . SVG Version: 6.00 Build 0)  -->
<svg version="1.1" id="Layer_1" xmlns="http://www.w3.org/2000/svg" xmlns:xlink="http://www.w3.org/1999/xlink" x="0px" y="0px"
	 viewBox="0 0 64 64" style="enable-background:new 0 0 64 64;" xml:space="preserve">
<style type="text/css">
	.st0{fill:#FF7300;stroke:#353535;stroke-miterlimit:10;}
</style>
<g>
	<g>
		<path class="st0" d="M47.8,17.7c-0.5-0.6-1.3-1-2.2-1H34.8V13c0-3.8-2.1-7.3-5.5-9L28,3.3c-1.4-0.7-3-0.1-3.7,1.2
			c-0.7,1.4-0.1,3,1.2,3.7l1.2,0.6c1.6,0.8,2.5,2.4,2.5,4.1v3.7H18.4c-0.8,0-1.6,0.4-2.2,1c-0.5,0.6-0.7,1.5-0.6,2.3l2.8,13.4
			c0.3,1.3,1.4,2.2,2.7,2.2h8v20.7c0,1.5,1.2,2.8,2.8,2.8c1.5,0,2.8-1.2,2.8-2.8V35.6h8c1.3,0,2.4-0.9,2.7-2.2L48.3,20
			C48.5,19.2,48.3,18.3,47.8,17.7z M29.2,30h-5.8l-1.7-7.8h7.4V30z M40.6,30h-5.8v-7.8h7.4L40.6,30z"/>
	</g>
</g>
</svg>
