<?xml version="1.0" encoding="utf-8"?>
<!-- Generator: Adobe Illustrator 24.0.1, SVG Export Plug-In . SVG Version: 6.00 Build 0)  -->
<svg version="1.1" id="Layer_1" xmlns="http://www.w3.org/2000/svg" xmlns:xlink="http://www.w3.org/1999/xlink" x="0px" y="0px"
	 viewBox="0 0 64 64" style="enable-background:new 0 0 64 64;" xml:space="preserve">
<style type="text/css">
	.st0{fill:none;}
	.st1{fill:#FFFFFF;stroke:#ADADAD;stroke-miterlimit:10;}
	.st2{fill:#FFB000;stroke:#3A3A3A;stroke-miterlimit:10;}
	.st3{fill:#FFFFFF;stroke:#333333;stroke-miterlimit:10;}
	.st4{fill:#3BFFB4;stroke:#3D3D3D;stroke-miterlimit:10;}
</style>
<line class="st0" x1="87.7" y1="-7.4" x2="87.7" y2="-7.4"/>
<path class="st1" d="M41.8,58.3H22.2c-6.6,0-12-5.4-12-12V17.7c0-6.6,5.4-12,12-12h19.6c6.6,0,12,5.4,12,12v28.7
	C53.8,52.9,48.4,58.3,41.8,58.3z"/>
<circle class="st2" cx="31.2" cy="29.2" r="16.5"/>
<circle class="st3" cx="31.2" cy="29.2" r="6.4"/>
<path class="st4" d="M16,51.7L16,51.7c1.1,0.8,2.6,0.6,3.4-0.5l8.4-11.5c0.8-1.1,0.6-2.6-0.5-3.4h0c-1.1-0.8-2.6-0.6-3.4,0.5
	l-8.4,11.5C14.6,49.3,14.9,50.9,16,51.7z"/>
</svg>
