<?xml version="1.0" encoding="utf-8"?>
<!-- Generator: Adobe Illustrator 24.0.1, SVG Export Plug-In . SVG Version: 6.00 Build 0)  -->
<svg version="1.1" id="Layer_1" xmlns="http://www.w3.org/2000/svg" xmlns:xlink="http://www.w3.org/1999/xlink" x="0px" y="0px"
	 viewBox="0 0 64 64" style="enable-background:new 0 0 64 64;" xml:space="preserve">
<style type="text/css">
	.st0{fill:none;}
	.st1{fill:#FF2976;stroke:#424242;stroke-miterlimit:10;}
	.st2{fill:none;stroke:#424242;stroke-miterlimit:10;}
	.st3{opacity:0.17;fill:#FFFFFF;}
</style>
<line class="st0" x1="87.7" y1="-7.4" x2="87.7" y2="-7.4"/>
<circle class="st1" cx="30.9" cy="40.5" r="17.9"/>
<circle class="st1" cx="31" cy="22.8" r="3.7"/>
<path class="st2" d="M31.4,6.6C33,4.7,36.1,4.7,38,6.3C38.8,7,39.4,8,39.2,9.1C39,10.2,38,11,36.9,11.3c-1.1,0.3-2.2,0.3-3.4,0.4
	c-1.2,0.1-2.4,0.5-3.2,1.3c-0.8,0.8-1.1,2.3-0.5,3.2c0.4,0.5,1,0.9,1.3,1.4c0.3,0.6,0.2,1.5-0.5,1.5c0.3-0.2,0.6-0.4,1-0.6"/>
<path class="st3" d="M39.2,52c-0.3,5-5.9,5.4-10.9,4.9c-8.1-0.8-14.4-10.1-14-15.1c0.4-5,0.9-11.6,5.9-11.3S39.5,47,39.2,52z"/>
</svg>
