<?xml version="1.0" encoding="utf-8"?>
<!-- Generator: Adobe Illustrator 24.0.1, SVG Export Plug-In . SVG Version: 6.00 Build 0)  -->
<svg version="1.1" id="Layer_1" xmlns="http://www.w3.org/2000/svg" xmlns:xlink="http://www.w3.org/1999/xlink" x="0px" y="0px"
	 viewBox="0 0 64 64" style="enable-background:new 0 0 64 64;" xml:space="preserve">
<style type="text/css">
	.st0{fill:none;}
	.st1{fill:#FF3636;}
</style>
<line class="st0" x1="87.7" y1="-7.4" x2="87.7" y2="-7.4"/>
<path class="st1" d="M42,9.5c-5.5,0-8.4,2.9-9.9,5.2c-1.5-2.3-4.4-5.2-9.9-5.2c-6.6,0-13.7,4.7-13.7,15.2c0,4.1,0.8,7.4,2.7,10.9
	c1.9,3.5,5.9,7.7,11.8,12.6c2.3,1.9,4.5,3.5,5.9,4.6c2.7,2,2.8,2,3.1,2c0,0,0,0,0,0c0.3,0,0.5-0.1,3.1-2c1.4-1,3.5-2.6,5.9-4.5
	c6-4.9,9.9-9.2,11.9-12.6c1.9-3.5,2.7-6.8,2.7-10.9C55.8,14.2,48.6,9.5,42,9.5z"/>
</svg>
