<?xml version="1.0" encoding="utf-8"?>
<!-- Generator: Adobe Illustrator 24.0.1, SVG Export Plug-In . SVG Version: 6.00 Build 0)  -->
<svg version="1.1" id="Layer_1" xmlns="http://www.w3.org/2000/svg" xmlns:xlink="http://www.w3.org/1999/xlink" x="0px" y="0px"
	 viewBox="0 0 64 64" style="enable-background:new 0 0 64 64;" xml:space="preserve">
<style type="text/css">
	.st0{fill:none;}
	.st1{fill:#FFE000;stroke:#424242;stroke-miterlimit:10;}
	.st2{fill:#9CE1FF;stroke:#424242;stroke-miterlimit:10;}
	.st3{fill:none;stroke:#424242;stroke-miterlimit:10;}
	.st4{fill:#FF0D0D;stroke:#424242;stroke-miterlimit:10;}
</style>
<line class="st0" x1="87.7" y1="-7.4" x2="87.7" y2="-7.4"/>
<path class="st1" d="M54.2,47.7H9.8c-3.5,0-6.3-2.8-6.3-6.3V25.2c0-3.5,2.8-6.3,6.3-6.3h44.4c3.5,0,6.3,2.8,6.3,6.3v16.3
	C60.4,44.9,57.6,47.7,54.2,47.7z"/>
<rect x="5.6" y="24.4" class="st2" width="42.1" height="16.2"/>
<line class="st3" x1="5.6" y1="24.7" x2="48.2" y2="24.7"/>
<line class="st3" x1="5.9" y1="27.9" x2="48.2" y2="27.9"/>
<line class="st3" x1="5.9" y1="31" x2="47.7" y2="31"/>
<line class="st3" x1="5.9" y1="34.2" x2="47.6" y2="34.2"/>
<path class="st3" d="M5.8,24.5l0.1,12.3c0,0,0-0.1,0-0.1h42.1"/>
<line class="st3" x1="8.9" y1="25.1" x2="8.9" y2="36.7"/>
<line class="st3" x1="11.4" y1="25" x2="11.4" y2="36.1"/>
<line class="st3" x1="14.1" y1="25.3" x2="14.1" y2="36.3"/>
<line class="st3" x1="16.9" y1="25" x2="16.9" y2="36.2"/>
<line class="st3" x1="19.5" y1="25.3" x2="19.5" y2="36.1"/>
<line class="st3" x1="22.4" y1="24.5" x2="22.4" y2="36.4"/>
<line class="st3" x1="25.5" y1="24.5" x2="25.2" y2="36.4"/>
<line class="st3" x1="28.2" y1="25.3" x2="28.2" y2="36.5"/>
<line class="st3" x1="30.9" y1="24.5" x2="30.9" y2="36.4"/>
<line class="st3" x1="33.7" y1="24.8" x2="33.7" y2="36.7"/>
<line class="st3" x1="36.8" y1="24.8" x2="36.6" y2="36.7"/>
<line class="st3" x1="39.8" y1="24.8" x2="39.8" y2="36.1"/>
<line class="st3" x1="42.4" y1="25.1" x2="42.4" y2="36.2"/>
<line class="st3" x1="45.2" y1="24.4" x2="45.2" y2="36.2"/>
<line class="st3" x1="48.3" y1="24.4" x2="48.1" y2="36.7"/>
<path class="st4" d="M57.3,38c-2.2,0-4.3,0-6.5,0c0,0,0,2.7,0,2.7c2.1,0,4.3,0.1,6.4,0.1L57.3,38z"/>
<line class="st3" x1="53" y1="41" x2="53" y2="38.6"/>
<line class="st3" x1="55" y1="40.5" x2="55" y2="38.4"/>
<polyline class="st4" points="55,37.9 55.1,35.5 53.1,35.5 53.1,37.9 "/>
<polygon class="st3" points="57.5,31.6 51,31.6 51,27.2 57.2,27.2 "/>
<line class="st3" x1="53" y1="26.7" x2="53" y2="31.3"/>
<line class="st3" x1="55.3" y1="27.6" x2="55.3" y2="31.6"/>
<line class="st3" x1="51.1" y1="29.5" x2="57.5" y2="29.5"/>
<polyline class="st3" points="6,37 6,40.4 8.8,40.4 8.8,36.8 "/>
<polyline class="st3" points="8.4,40.2 31.5,40.2 31.5,36.8 "/>
<polyline class="st3" points="30.8,40.2 48.1,40.2 48.1,36.1 "/>
<line class="st3" x1="35" y1="39.8" x2="35" y2="37"/>
<line class="st3" x1="38.2" y1="40.1" x2="38.2" y2="37.2"/>
<line class="st3" x1="41.9" y1="39.9" x2="41.9" y2="37"/>
<line class="st3" x1="45.2" y1="40.2" x2="45.2" y2="36.8"/>
<path class="st3" d="M30.2,19.1c-0.4-1.3-0.7-2.8-0.1-4.1c0.5-0.9,1.4-1.5,2.3-1.9c1.3-0.6,2.6-1,4-1.2c1.4-0.2,3-0.3,4-1.2
	c0.4-0.4,0.7-0.8,0.9-1.3c0.9-2,0.4-4.6-1.3-6.2"/>
</svg>
