<?xml version="1.0" encoding="utf-8"?>
<!-- Generator: Adobe Illustrator 24.0.1, SVG Export Plug-In . SVG Version: 6.00 Build 0)  -->
<svg version="1.1" id="Layer_1" xmlns="http://www.w3.org/2000/svg" xmlns:xlink="http://www.w3.org/1999/xlink" x="0px" y="0px"
	 viewBox="0 0 64 64" style="enable-background:new 0 0 64 64;" xml:space="preserve">
<style type="text/css">
	.st0{fill:#1565C0;stroke:#3F3F3F;stroke-miterlimit:10;}
	.st1{fill:#F9F9F9;stroke:#3F3F3F;stroke-miterlimit:10;}
	.st2{fill:#FFFFFF;}
	.st3{fill:#1565C0;}
</style>
<path class="st0" d="M51,58.7H13c-3.4,0-6.2-2.8-6.2-6.2v-41c0-3.4,2.8-6.2,6.2-6.2H51c3.4,0,6.2,2.8,6.2,6.2v41
	C57.3,55.9,54.4,58.7,51,58.7z"/>
<path class="st1" d="M55,14.2v35.6c0,3.4-2.8,6.2-6.2,6.2H15.3c-3.4,0-6.2-2.8-6.2-6.2V14.2c0-3.4,2.8-6.2,6.2-6.2h33.5
	C52.2,8,55,10.7,55,14.2z"/>
<g>
	<path class="st2" d="M26.8,33.5c-0.1-1.2-0.2-2.9-0.1-4.3h-0.1c-0.2,1.4-0.6,3-0.8,4l-1.1,4.7h-1.8l-1.1-4.6
		c-0.3-1-0.6-2.7-0.8-4.1h-0.1c0,1.4-0.1,3.1-0.2,4.4l-0.2,4.5h-2.2L19.3,25h2.7l1,4.7c0.4,1.6,0.7,3.1,0.9,4.6h0
		c0.2-1.5,0.5-2.9,0.8-4.6l1-4.7h2.7l0.8,13.1H27L26.8,33.5z"/>
</g>
<g>
	<g>
		<path class="st3" d="M34.5,13.6c-0.2-0.2-0.5-0.2-0.7-0.2l-21,4.9c-0.4,0.1-0.6,0.4-0.6,0.8v27.5c0,0.4,0.3,0.7,0.7,0.8l21,3.2
			c0.4,0.1,0.9-0.2,0.9-0.7c0,0,0-0.1,0-0.1V14.2C34.8,14,34.7,13.7,34.5,13.6z"/>
		<path class="st3" d="M50.2,47.4H34c-0.5,0-0.8-0.4-0.8-0.8c0-0.5,0.4-0.8,0.8-0.8h15.4V18.2H34c-0.5,0-0.8-0.4-0.8-0.8
			c0-0.5,0.4-0.8,0.8-0.8h16.2c0.5,0,0.8,0.4,0.8,0.8v29.1C51,47,50.6,47.4,50.2,47.4z"/>
	</g>
	<g>
		<path class="st3" d="M46.9,23.1H34c-0.5,0-0.8-0.4-0.8-0.8c0-0.5,0.4-0.8,0.8-0.8h13c0.5,0,0.8,0.4,0.8,0.8
			C47.7,22.7,47.4,23.1,46.9,23.1z"/>
		<path class="st3" d="M46.9,28H34c-0.5,0-0.8-0.4-0.8-0.8c0-0.5,0.4-0.8,0.8-0.8h13c0.5,0,0.8,0.4,0.8,0.8
			C47.7,27.6,47.4,28,46.9,28z"/>
		<path class="st3" d="M46.9,32.8H34c-0.5,0-0.8-0.4-0.8-0.8c0-0.5,0.4-0.8,0.8-0.8h13c0.5,0,0.8,0.4,0.8,0.8
			C47.7,32.4,47.4,32.8,46.9,32.8z"/>
		<path class="st3" d="M46.9,37.7H34c-0.5,0-0.8-0.4-0.8-0.8c0-0.5,0.4-0.8,0.8-0.8h13c0.5,0,0.8,0.4,0.8,0.8
			C47.7,37.3,47.4,37.7,46.9,37.7z"/>
		<path class="st3" d="M46.9,42.5H34c-0.5,0-0.8-0.4-0.8-0.8c0-0.5,0.4-0.8,0.8-0.8h13c0.5,0,0.8,0.4,0.8,0.8
			C47.7,42.2,47.4,42.5,46.9,42.5z"/>
	</g>
</g>
<g>
	<path class="st2" d="M18.3,38.9l-2.4-13.8h2.8l0.7,5.5c0.2,1.6,0.3,3.2,0.5,4.8h0.1c0.2-1.7,0.5-3.2,0.8-4.9l1-5.5h2.2l0.9,5.5
		c0.2,1.6,0.5,3.1,0.7,4.9h0c0.2-1.8,0.3-3.3,0.5-4.9l0.7-5.5h2.6l-2.4,13.8h-2.8l-0.8-4.5c-0.2-1.3-0.4-2.8-0.6-4.5h0
		c-0.2,1.7-0.5,3.2-0.8,4.6l-0.9,4.5L18.3,38.9L18.3,38.9z"/>
</g>
</svg>
