<?xml version="1.0" encoding="utf-8"?>
<!-- Generator: Adobe Illustrator 24.0.1, SVG Export Plug-In . SVG Version: 6.00 Build 0)  -->
<svg version="1.1" id="Layer_1" xmlns="http://www.w3.org/2000/svg" xmlns:xlink="http://www.w3.org/1999/xlink" x="0px" y="0px"
	 viewBox="0 0 64 64" style="enable-background:new 0 0 64 64;" xml:space="preserve">
<style type="text/css">
	.st0{fill:#FFB600;stroke:#3F3F3F;stroke-miterlimit:10;}
	.st1{fill:#F9F9F9;stroke:#3F3F3F;stroke-miterlimit:10;}
	.st2{fill:#FFFFFF;}
	.st3{fill:#FFB600;}
</style>
<path class="st0" d="M51,58.7H13c-3.4,0-6.2-2.8-6.2-6.2v-41c0-3.4,2.8-6.2,6.2-6.2h38c3.4,0,6.2,2.8,6.2,6.2v41
	C57.3,55.9,54.4,58.7,51,58.7z"/>
<path class="st1" d="M55,14.2v35.6c0,3.4-2.8,6.2-6.2,6.2H15.3c-3.4,0-6.2-2.8-6.2-6.2V14.2c0-3.4,2.8-6.2,6.2-6.2h33.5
	C52.2,8,55,10.7,55,14.2z"/>
<g>
	<path class="st2" d="M19.1,24.8c0.9-0.2,2-0.3,3.3-0.3c1.4,0,2.7,0.2,3.8,1.1c0.8,0.7,1.1,1.6,1.1,2.7c0,1.3-0.7,2.6-2.2,3.2v0.1
		c1.7,0.5,2.6,1.9,2.6,3.5c0,1.2-0.4,2.2-1.1,2.9c-0.9,1-2.4,1.5-4.9,1.5c-1.1,0-2-0.1-2.7-0.1L19.1,24.8L19.1,24.8z M22,30.7h0.6
		c1,0,1.8-0.9,1.8-2.1c0-1.1-0.5-1.9-1.7-1.9c-0.3,0-0.6,0-0.8,0.1L22,30.7L22,30.7z M22,37.3c0.2,0,0.4,0,0.6,0
		c1.2,0,2.1-0.7,2.1-2.2s-1-2.3-2.2-2.3H22V37.3z"/>
</g>
<g>
	<g>
		<path class="st3" d="M36.8,12.2C36.6,12,36.3,12,36.1,12l-22.3,5.1c-0.4,0.1-0.7,0.4-0.7,0.8V47c0,0.4,0.3,0.8,0.7,0.9l22.3,3.4
			c0.5,0.1,0.9-0.2,1-0.7v-0.1V12.9C37.2,12.7,37,12.4,36.8,12.2z"/>
	</g>
</g>
<g>
	<path class="st2" d="M20.7,24.6c0.7-0.2,1.8-0.3,2.9-0.3c1.8,0,3.1,0.4,4.1,1.3c1.3,1.1,1.9,3.1,1.9,5.9c0,3-0.8,5-2,6.2
		c-1,1-2.4,1.4-4.5,1.4c-0.9,0-1.8-0.1-2.3-0.1L20.7,24.6L20.7,24.6z M23.6,36.8c0.1,0,0.3,0,0.5,0c1.4,0,2.6-1.3,2.6-5.4
		c0-3-0.8-4.8-2.5-4.8c-0.2,0-0.4,0-0.6,0.1V36.8L23.6,36.8z"/>
</g>
<circle class="st3" cx="44.3" cy="24.4" r="6"/>
<polygon class="st3" points="48.6,47.8 43.5,45 38.3,42.3 43.3,39.2 48.3,36.1 48.4,42 "/>
</svg>
