<?xml version="1.0" encoding="utf-8"?>
<!-- Generator: Adobe Illustrator 24.0.1, SVG Export Plug-In . SVG Version: 6.00 Build 0)  -->
<svg version="1.1" id="Layer_1" xmlns="http://www.w3.org/2000/svg" xmlns:xlink="http://www.w3.org/1999/xlink" x="0px" y="0px"
	 viewBox="0 0 64 64" style="enable-background:new 0 0 64 64;" xml:space="preserve">
<style type="text/css">
	.st0{fill:#A7C0E4;stroke:#3F3F3F;stroke-miterlimit:10;}
	.st1{fill:#F9F9F9;stroke:#3F3F3F;stroke-miterlimit:10;}
	.st2{fill:#A7C0E4;}
	.st3{fill:#FFFFFF;}
</style>
<path class="st0" d="M51,58.7H13c-3.4,0-6.2-2.8-6.2-6.2v-41c0-3.4,2.8-6.2,6.2-6.2H51c3.4,0,6.2,2.8,6.2,6.2v41
	C57.3,55.9,54.4,58.7,51,58.7z"/>
<path class="st1" d="M55,14.2v35.6c0,3.4-2.8,6.2-6.2,6.2H15.3c-3.4,0-6.2-2.8-6.2-6.2V14.2c0-3.4,2.8-6.2,6.2-6.2h33.5
	C52.2,8,55,10.7,55,14.2z"/>
<g>
	<path class="st2" d="M42.9,21.6V20c-2.3,0-4.3,1.6-4.7,3.9L37.3,29h-2.2v1.6H37l-0.9,4.8c-0.3,1.5-1.6,2.6-3.1,2.6v1.6
		c2.3,0,4.3-1.6,4.7-3.9l0.9-5.1h1.8v-1.6H39l0.9-4.8C40.1,22.7,41.4,21.6,42.9,21.6z"/>
	<path class="st2" d="M43.7,24.9l-0.7-0.5c-0.1,0.1-1.4,1.9-1.4,5.4s1.3,5.4,1.4,5.4l1.3-1c0,0-1.1-1.5-1.1-4.4
		c0-2.9,1.1-4.4,1.1-4.4L43.7,24.9z"/>
	<path class="st2" d="M50.1,25.4c0,0,1.1,1.5,1.1,4.4c0,2.9-1.1,4.4-1.1,4.4l0.7,0.5l0.7,0.5c0.1-0.1,1.4-1.9,1.4-5.4
		s-1.3-5.4-1.4-5.4L50.1,25.4z"/>
	<path class="st2" d="M48,27.3l-1,1.3l-1-1.3l-1.3,1l1.3,1.8l-1.3,1.8l1.3,1l1-1.3l1,1.3l1.3-1L48,30.1l1.3-1.8L48,27.3z"/>
	<g>
		<path class="st2" d="M33.3,14.1c-0.2-0.1-0.4-0.2-0.6-0.2l-20,4.6c-0.3,0.1-0.6,0.4-0.6,0.8v26.1c0,0.4,0.3,0.7,0.6,0.8l20,3.1
			c0.4,0.1,0.8-0.2,0.9-0.6c0,0,0-0.1,0-0.1V14.7C33.6,14.5,33.5,14.2,33.3,14.1z"/>
	</g>
</g>
<g>
	<path class="st3" d="M26.8,33.5c-0.1-1.2-0.2-2.9-0.1-4.3h-0.1c-0.2,1.4-0.6,3-0.8,4l-1.1,4.7h-1.8l-1.1-4.6
		c-0.3-1-0.6-2.7-0.8-4.1h-0.1c0,1.4-0.1,3.1-0.2,4.4l-0.2,4.5h-2.2L19.3,25h2.7l1,4.7c0.4,1.6,0.7,3.1,0.9,4.6h0
		c0.2-1.5,0.5-2.9,0.8-4.6l1-4.7h2.7l0.8,13.1H27L26.8,33.5z"/>
</g>
</svg>
