<?xml version="1.0" encoding="utf-8"?>
<!-- Generator: Adobe Illustrator 24.0.1, SVG Export Plug-In . SVG Version: 6.00 Build 0)  -->
<svg version="1.1" id="Layer_1" xmlns="http://www.w3.org/2000/svg" xmlns:xlink="http://www.w3.org/1999/xlink" x="0px" y="0px"
	 viewBox="0 0 64 64" style="enable-background:new 0 0 64 64;" xml:space="preserve">
<style type="text/css">
	.st0{fill:#FF5722;stroke:#3F3F3F;stroke-miterlimit:10;}
	.st1{fill:#F9F9F9;stroke:#3F3F3F;stroke-miterlimit:10;}
	.st2{fill:#FF5722;}
	.st3{fill:#FFFFFF;}
</style>
<path class="st0" d="M51,58.7H13c-3.4,0-6.2-2.8-6.2-6.2v-41c0-3.4,2.8-6.2,6.2-6.2H51c3.4,0,6.2,2.8,6.2,6.2v41
	C57.3,55.9,54.4,58.7,51,58.7z"/>
<path class="st1" d="M55,14.2v35.6c0,3.4-2.8,6.2-6.2,6.2H15.3c-3.4,0-6.2-2.8-6.2-6.2V14.2c0-3.4,2.8-6.2,6.2-6.2h33.5
	C52.2,8,55,10.7,55,14.2z"/>
<g>
	<g>
		<path class="st2" d="M41.3,20.5c-0.5,0-0.8,0.4-0.8,0.8v4.9c0,0.5,0.4,0.8,0.8,0.8h4.9c0.5,0,0.8-0.4,0.8-0.8
			C47,23.1,44.5,20.5,41.3,20.5z"/>
		<path class="st2" d="M41.3,28.7c-1.4,0-2.5-1.1-2.5-2.5v-4c-3.1,0.4-5.3,3.4-4.9,6.5c0.4,3.1,3.4,5.3,6.5,4.9
			c2.5-0.4,4.5-2.3,4.9-4.9L41.3,28.7L41.3,28.7z"/>
		<path class="st2" d="M35.2,12.4c-0.2-0.2-0.5-0.2-0.7-0.2l-21.4,4.9c-0.4,0.1-0.6,0.4-0.6,0.8v28c0,0.4,0.3,0.8,0.7,0.8l21.4,3.3
			c0.4,0.1,0.9-0.2,0.9-0.7c0,0,0-0.1,0-0.1V13.1C35.5,12.8,35.4,12.6,35.2,12.4z"/>
		<path class="st2" d="M51.1,46.8H34.7c-0.5,0-0.8-0.4-0.8-0.8c0-0.5,0.4-0.8,0.8-0.8h15.6v-28H34.7c-0.5,0-0.8-0.4-0.8-0.8
			c0-0.5,0.4-0.8,0.8-0.8h16.5c0.5,0,0.8,0.4,0.8,0.8V46C52,46.5,51.6,46.8,51.1,46.8z"/>
		<path class="st2" d="M46.2,41.9H34.7c-0.5,0-0.8-0.4-0.8-0.8c0-0.5,0.4-0.8,0.8-0.8h11.5c0.5,0,0.8,0.4,0.8,0.8
			C47,41.5,46.7,41.9,46.2,41.9z"/>
		<path class="st2" d="M46.2,37H34.7c-0.5,0-0.8-0.4-0.8-0.8c0-0.5,0.4-0.8,0.8-0.8h11.5c0.5,0,0.8,0.4,0.8,0.8
			C47,36.6,46.7,37,46.2,37z"/>
	</g>
</g>
<g>
	<path class="st3" d="M18.2,25v14.1h-2.7V25H18.2z"/>
	<path class="st3" d="M20.4,31.9c0-1.1-0.1-2.1-0.1-3.1h2.4l0.1,1.2h0c0.5-0.8,1.4-1.3,2.4-1.3c1.1,0,1.9,0.5,2.2,1.4h0
		c0.3-0.4,0.6-0.8,1-1c0.4-0.2,0.9-0.3,1.4-0.3c1.8,0,2.6,1.4,2.6,3.9v6.5h-2.7v-6c0-1.2-0.1-2.1-1-2.1c-0.5,0-0.8,0.3-1,0.9
		c0,0.1-0.1,0.4-0.1,0.7v6.5h-2.7v-6.4c0-0.7-0.1-1.7-0.9-1.7c-0.4,0-0.8,0.3-1,0.9c-0.1,0.2-0.1,0.5-0.1,0.8v6.4h-2.7L20.4,31.9
		L20.4,31.9z"/>
</g>
</svg>
