<?xml version="1.0" encoding="utf-8"?>
<!-- Generator: Adobe Illustrator 24.0.1, SVG Export Plug-In . SVG Version: 6.00 Build 0)  -->
<svg version="1.1" id="Layer_1" xmlns="http://www.w3.org/2000/svg" xmlns:xlink="http://www.w3.org/1999/xlink" x="0px" y="0px"
	 viewBox="0 0 64 64" style="enable-background:new 0 0 64 64;" xml:space="preserve">
<style type="text/css">
	.st0{fill:#FF4040;stroke:#3F3F3F;stroke-miterlimit:10;}
	.st1{fill:#F9F9F9;stroke:#3F3F3F;stroke-miterlimit:10;}
	.st2{fill:#FF4040;}
	.st3{fill:#FFFFFF;}
</style>
<path class="st0" d="M51,58.7H13c-3.4,0-6.2-2.8-6.2-6.2v-41c0-3.4,2.8-6.2,6.2-6.2H51c3.4,0,6.2,2.8,6.2,6.2v41
	C57.3,55.9,54.4,58.7,51,58.7z"/>
<path class="st1" d="M55,14.2v35.6c0,3.4-2.8,6.2-6.2,6.2H15.3c-3.4,0-6.2-2.8-6.2-6.2V14.2c0-3.4,2.8-6.2,6.2-6.2h33.5
	C52.2,8,55,10.7,55,14.2z"/>
<g>
	<path class="st2" d="M39.5,16c-2.4,0-4.6,0.2-6.5,0.7l0.6,2.4c1.7-0.4,3.7-0.6,5.9-0.6c6.5,0,9.9,1.8,9.9,2.5s-3.4,2.5-9.9,2.5
		c-2.2,0-4.2-0.2-5.9-0.6L33,25.2c1.9,0.4,4.1,0.7,6.5,0.7c3.6,0,7.5-0.6,9.9-1.8v4.3c0,0.6-3.4,2.5-9.9,2.5c-2.2,0-4.2-0.2-5.9-0.6
		L33,32.6c1.9,0.4,4.1,0.7,6.5,0.7c3.6,0,7.5-0.6,9.9-1.8v4.3c0,0.6-3.4,2.5-9.9,2.5c-2.2,0-4.2-0.2-5.9-0.6L33,40
		c1.9,0.4,4.1,0.7,6.4,0.7c3.6,0,7.5-0.6,9.9-1.8v4.3c0,0.6-3.4,2.5-9.9,2.5c-2.2,0-4.2-0.2-5.9-0.6L33,47.4
		c1.9,0.4,4.1,0.7,6.4,0.7c5.9,0,12.3-1.5,12.3-4.9V20.9C51.8,17.5,45.4,16,39.5,16z"/>
	<path class="st2" d="M34.1,13.8c-0.3-0.2-0.7-0.3-1-0.3l-19.7,3.7c-0.6,0.1-1,0.6-1,1.2v27.1c0,0.6,0.4,1.1,1,1.2l19.7,3.7
		c0.1,0,0.1,0,0.2,0c0.3,0,0.6-0.1,0.8-0.3c0.3-0.2,0.4-0.6,0.4-1V14.7C34.5,14.4,34.4,14,34.1,13.8z"/>
</g>
<g>
	<path class="st3" d="M19.1,24.8c0.9-0.2,2-0.3,3.3-0.3c1.4,0,2.7,0.2,3.8,1.1c0.8,0.7,1.1,1.6,1.1,2.7c0,1.3-0.7,2.6-2.2,3.2v0.1
		c1.7,0.5,2.6,1.9,2.6,3.5c0,1.2-0.4,2.2-1.1,2.9c-0.9,1-2.4,1.5-4.9,1.5c-1.1,0-2-0.1-2.7-0.1L19.1,24.8L19.1,24.8z M22,30.7h0.6
		c1,0,1.8-0.9,1.8-2.1c0-1.1-0.5-1.9-1.7-1.9c-0.3,0-0.6,0-0.8,0.1L22,30.7L22,30.7z M22,37.3c0.2,0,0.4,0,0.6,0
		c1.2,0,2.1-0.7,2.1-2.2c0-1.5-1-2.3-2.2-2.3H22V37.3z"/>
</g>
</svg>
