<?xml version="1.0" encoding="utf-8"?>
<!-- Generator: Adobe Illustrator 24.0.1, SVG Export Plug-In . SVG Version: 6.00 Build 0)  -->
<svg version="1.1" id="Layer_1" xmlns="http://www.w3.org/2000/svg" xmlns:xlink="http://www.w3.org/1999/xlink" x="0px" y="0px"
	 viewBox="0 0 64 64" style="enable-background:new 0 0 64 64;" xml:space="preserve">
<style type="text/css">
	.st0{fill:#2E7D32;stroke:#3F3F3F;stroke-miterlimit:10;}
	.st1{fill:#F9F9F9;stroke:#3F3F3F;stroke-miterlimit:10;}
	.st2{fill:#FFFFFF;}
	.st3{fill:#ECEFF1;}
	.st4{fill:#388E3C;}
	.st5{fill:#2E7D32;}
</style>
<path class="st0" d="M51,58.7H13c-3.4,0-6.2-2.8-6.2-6.2v-41c0-3.4,2.8-6.2,6.2-6.2H51c3.4,0,6.2,2.8,6.2,6.2v41
	C57.3,55.9,54.4,58.7,51,58.7z"/>
<path class="st1" d="M55,14.2v35.6c0,3.4-2.8,6.2-6.2,6.2H15.3c-3.4,0-6.2-2.8-6.2-6.2V14.2c0-3.4,2.8-6.2,6.2-6.2h33.5
	C52.2,8,55,10.7,55,14.2z"/>
<g>
	<path class="st2" d="M19.1,24.8c0.9-0.2,2-0.3,3.3-0.3c1.4,0,2.7,0.2,3.8,1.1c0.8,0.7,1.1,1.6,1.1,2.7c0,1.3-0.7,2.6-2.2,3.2v0.1
		c1.7,0.5,2.6,1.9,2.6,3.5c0,1.2-0.4,2.2-1.1,2.9c-0.9,1-2.4,1.5-4.9,1.5c-1.1,0-2-0.1-2.7-0.1L19.1,24.8L19.1,24.8z M22,30.7h0.6
		c1,0,1.8-0.9,1.8-2.1c0-1.1-0.5-1.9-1.7-1.9c-0.3,0-0.6,0-0.8,0.1L22,30.7L22,30.7z M22,37.3c0.2,0,0.4,0,0.6,0
		c1.2,0,2.1-0.7,2.1-2.2c0-1.5-1-2.3-2.2-2.3H22V37.3z"/>
</g>
<g>
	<g>
		<path class="st3" d="M50.2,44.1H33.3c-0.7,0-1.2-0.5-1.2-1.2s0-23.5,0-24.2s0.5-1.2,1.2-1.2h16.9c0.7,0,1.2,0.5,1.2,1.2v24.2
			C51.4,43.6,50.8,44.1,50.2,44.1z"/>
		<g>
			<path class="st4" d="M38.1,24.8h-4.8c-0.7,0-1.2-0.5-1.2-1.2c0-0.7,0.5-1.2,1.2-1.2h4.8c0.7,0,1.2,0.5,1.2,1.2
				C39.3,24.2,38.8,24.8,38.1,24.8z"/>
			<path class="st4" d="M38.1,29.6h-4.8c-0.7,0-1.2-0.5-1.2-1.2c0-0.7,0.5-1.2,1.2-1.2h4.8c0.7,0,1.2,0.5,1.2,1.2
				C39.3,29.1,38.8,29.6,38.1,29.6z"/>
			<path class="st4" d="M38.1,34.4h-4.8c-0.7,0-1.2-0.5-1.2-1.2s0.5-1.2,1.2-1.2h4.8c0.7,0,1.2,0.5,1.2,1.2S38.8,34.4,38.1,34.4z"/>
			<path class="st4" d="M38.1,39.3h-4.8c-0.7,0-1.2-0.5-1.2-1.2c0-0.7,0.5-1.2,1.2-1.2h4.8c0.7,0,1.2,0.5,1.2,1.2
				C39.3,38.7,38.8,39.3,38.1,39.3z"/>
			<path class="st4" d="M45.3,24.8h-2.4c-0.7,0-1.2-0.5-1.2-1.2c0-0.7,0.5-1.2,1.2-1.2h2.4c0.7,0,1.2,0.5,1.2,1.2
				C46.5,24.2,46,24.8,45.3,24.8z"/>
			<path class="st4" d="M45.3,29.6h-2.4c-0.7,0-1.2-0.5-1.2-1.2c0-0.7,0.5-1.2,1.2-1.2h2.4c0.7,0,1.2,0.5,1.2,1.2
				C46.5,29.1,46,29.6,45.3,29.6z"/>
			<path class="st4" d="M45.3,34.4h-2.4c-0.7,0-1.2-0.5-1.2-1.2s0.5-1.2,1.2-1.2h2.4c0.7,0,1.2,0.5,1.2,1.2S46,34.4,45.3,34.4z"/>
			<path class="st4" d="M45.3,39.3h-2.4c-0.7,0-1.2-0.5-1.2-1.2c0-0.7,0.5-1.2,1.2-1.2h2.4c0.7,0,1.2,0.5,1.2,1.2
				C46.5,38.7,46,39.3,45.3,39.3z"/>
		</g>
		<path class="st5" d="M34,13c-0.3-0.2-0.6-0.3-1-0.3l-19.3,3.6c-0.6,0.1-1,0.6-1,1.2v26.6c0,0.6,0.4,1.1,1,1.2L33,48.9
			c0.1,0,0.1,0,0.2,0c0.3,0,0.6-0.1,0.8-0.3c0.3-0.2,0.4-0.6,0.4-0.9V13.9C34.5,13.5,34.3,13.2,34,13z"/>
	</g>
	<g>
		<path class="st2" d="M26.2,37.2c-0.4,0.2-1.1,0.3-2.1,0.3c-3.5,0-5.2-2.9-5.2-6.8c0-5.2,2.9-7.2,5.5-7.2c0.9,0,1.6,0.2,1.8,0.4
			l-0.4,2.2c-0.3-0.1-0.7-0.3-1.2-0.3c-1.5,0-2.9,1.3-2.9,4.7c0,3.3,1.2,4.6,2.9,4.6c0.4,0,1-0.1,1.3-0.2L26.2,37.2z"/>
	</g>
</g>
</svg>
