<?xml version="1.0" encoding="utf-8"?>
<!-- Generator: Adobe Illustrator 24.0.1, SVG Export Plug-In . SVG Version: 6.00 Build 0)  -->
<svg version="1.1" id="Layer_1" xmlns="http://www.w3.org/2000/svg" xmlns:xlink="http://www.w3.org/1999/xlink" x="0px" y="0px"
	 viewBox="0 0 64 64" style="enable-background:new 0 0 64 64;" xml:space="preserve">
<style type="text/css">
	.st0{fill:#B752FF;stroke:#3F3F3F;stroke-width:0.5;stroke-miterlimit:10;}
</style>
<g id="_x31_5_refresh">
	<path class="st0" d="M5.5,32.6c0.6,0.1,2.8,0.5,3.1,0.6c0.5,12.4,10.2,23,23.2,24.1C45.8,58.3,58,48,59.1,34
		c1.1-13.9-9.2-26.1-23.2-27.2c-7.3-0.6-14.2,2-19.2,6.7c-0.9,0.8-0.9,2.2-0.1,3.1c0.8,0.9,2.2,0.9,3.1,0.1c4.1-3.8,9.8-6,15.9-5.5
		c11.5,0.9,20,11,19.1,22.5s-11,20-22.5,19.1C22,52,14.1,43.9,13.1,34c0.6,0.1,0,0,3.2,0.6c0.6,0.1,1.2-0.5,0.9-1.1l-3.6-10.3
		c-0.2-0.6-1-0.8-1.4-0.3l-7.2,8.2C4.6,31.6,4.9,32.4,5.5,32.6L5.5,32.6z"/>
</g>
</svg>
