<?xml version="1.0" encoding="utf-8"?>
<!-- Generator: Adobe Illustrator 24.0.1, SVG Export Plug-In . SVG Version: 6.00 Build 0)  -->
<svg version="1.1" id="Layer_1" xmlns="http://www.w3.org/2000/svg" xmlns:xlink="http://www.w3.org/1999/xlink" x="0px" y="0px"
	 viewBox="0 0 64 64" style="enable-background:new 0 0 64 64;" xml:space="preserve">
<style type="text/css">
	.st0{fill:#FF7F66;}
	.st1{fill:#76DCFF;}
</style>
<g>
	<path class="st0" d="M29,14.7c-2.5,1.8-5.4,3.8-7,7.2c-2.7,5.9,5.5,12.2,5.8,12.5c0.1,0.1,0.2,0.1,0.3,0.1c0.1,0,0.2,0,0.3-0.1
		c0.2-0.1,0.2-0.4,0.1-0.6c0-0.1-3-5.8-2.9-9.8c0.1-1.4,2-3,4.1-4.8c1.9-1.6,4.1-3.3,5.4-5.4c2.8-4.6-0.3-9.1-0.4-9.1
		c-0.1-0.2-0.4-0.2-0.6-0.2C34.1,4.5,34,4.7,34,5c0,0,0.6,3-1.1,6.1C32.3,12.4,30.8,13.4,29,14.7z"/>
	<path class="st0" d="M39.7,16.7c0.2-0.1,0.2-0.4,0.1-0.6c-0.1-0.2-0.4-0.3-0.6-0.2c-0.4,0.2-10.6,4.1-10.6,8.8c0,3.3,1.4,5,2.4,6.2
		c0.4,0.5,0.7,0.9,0.9,1.3c0.3,1-0.4,2.9-0.8,3.6c-0.1,0.2-0.1,0.4,0.1,0.5c0.1,0.1,0.2,0.1,0.3,0.1c0.1,0,0.2,0,0.3-0.1
		c0.2-0.1,4.3-3,3.5-6.5c-0.3-1.3-0.9-2.3-1.5-3.1c-0.9-1.3-1.5-2.3-0.6-4C34.5,20.7,39.7,16.8,39.7,16.7z"/>
</g>
<g>
	<path class="st1" d="M13.3,36.5c-0.2,0.5-0.1,1,0.2,1.5c1.1,1.5,5,2.4,11,2.4l0,0c0.8,0,1.7,0,2.5-0.1c9.6-0.3,13.1-3.3,13.2-3.4
		c0.2-0.1,0.2-0.4,0.1-0.6c-0.1-0.2-0.3-0.3-0.5-0.2c-3.4,0.9-9.7,1.2-14,1.2c-4.9,0-7.4-0.4-8-0.6c0.3-0.4,2.2-1.2,4.6-1.7
		c0.2-0.1,0.4-0.3,0.4-0.5c0-0.2-0.2-0.4-0.4-0.4C21.1,34.2,14,34.3,13.3,36.5z"/>
	<path class="st1" d="M45.3,33.5c-2,0-3.8,1-3.9,1c-0.2,0.1-0.3,0.3-0.2,0.5s0.2,0.3,0.4,0.3c0.1,0,4.2,0,4.6,2.4
		c0.3,2-3.9,5.4-5.6,6.5c-0.2,0.1-0.3,0.4-0.2,0.6c0.1,0.2,0.2,0.3,0.4,0.3c0,0,0.1,0,0.1,0c0.4-0.1,9.7-2.1,8.7-7.6
		C49,34.2,46.9,33.5,45.3,33.5z"/>
	<path class="st1" d="M38.9,43.6c0-0.2-0.1-0.4-0.2-0.5l-2.2-1.6c-0.1-0.1-0.3-0.1-0.4-0.1c0,0-2.4,0.6-5.8,1
		c-1.3,0.2-2.9,0.2-4.4,0.2c-3.4,0-5.6-0.4-5.9-0.7c-0.1-0.1,0-0.1,0-0.1c0.1-0.2,0.4-0.4,0.6-0.4c0.2-0.1,0.3-0.3,0.3-0.6
		c-0.1-0.2-0.3-0.4-0.5-0.3c-2.2,0.5-3.3,1.3-3.3,2.2c0.1,1.7,4,2.6,7.4,2.8c0.5,0,1,0.1,1.5,0.1l0,0c5.5,0,12.5-1.7,12.6-1.7
		C38.7,43.9,38.9,43.8,38.9,43.6z"/>
	<path class="st1" d="M22,47.2c0.2-0.1,0.3-0.3,0.2-0.5c-0.1-0.2-0.3-0.3-0.4-0.3c-0.3,0-2.9,0.1-3.1,1.8c-0.1,0.5,0.1,1,0.4,1.4
		c1,1.1,3.5,1.8,7.8,2c0.5,0,1,0.1,1.5,0.1c5.5,0,9.2-1.7,9.3-1.8c0.2-0.1,0.3-0.2,0.3-0.4c0-0.2-0.1-0.3-0.2-0.4L35,47.4
		c-0.1-0.1-0.2-0.1-0.3-0.1c0,0-1.8,0.4-4.5,0.8c-0.5,0.1-1.1,0.1-1.9,0.1c-2.7,0-5.7-0.4-6.3-0.7C22,47.4,22,47.3,22,47.2z"/>
	<path class="st1" d="M25.9,56.8c12.6,0,19.3-2.2,20.6-3.6c0.5-0.5,0.5-1,0.5-1.3c-0.1-0.8-0.8-1.2-0.9-1.3
		c-0.2-0.1-0.4-0.1-0.6,0.1c-0.2,0.2-0.2,0.4,0,0.6c0.1,0.1,0.1,0.3-0.1,0.5c-0.5,0.5-5.8,2-14.5,2.4c-1.2,0.1-2.5,0.1-3.7,0.1
		c-7.8,0-13.5-1.1-14.3-1.7c0.3-0.4,2.3-1.1,4.5-1.5c0.3-0.1,0.4-0.3,0.4-0.5s-0.3-0.4-0.5-0.4c-0.1,0-0.3,0-0.5,0
		c-3.5,0.2-7.6,0.7-7.9,2.5c-0.1,0.6,0.1,1.1,0.5,1.5C10.4,55.4,13.1,56.8,25.9,56.8L25.9,56.8z"/>
	<path class="st1" d="M49,53.6c-0.2-0.1-0.4-0.1-0.5,0.1c0,0-1.9,2-7.6,3.2c-2.2,0.4-6.2,0.7-12.1,0.7s-11.5-0.2-11.5-0.2
		c-0.2,0-0.4,0.2-0.5,0.4s0.1,0.4,0.3,0.5c0.1,0,5.9,1.4,14,1.4c3.8,0,7.6-0.3,11.1-0.9c6.6-1.1,7.1-4.4,7.1-4.6
		C49.3,53.9,49.2,53.7,49,53.6z"/>
</g>
</svg>
