<?xml version="1.0" encoding="utf-8"?>
<!-- Generator: Adobe Illustrator 24.0.1, SVG Export Plug-In . SVG Version: 6.00 Build 0)  -->
<svg version="1.1" id="Layer_1" xmlns="http://www.w3.org/2000/svg" xmlns:xlink="http://www.w3.org/1999/xlink" x="0px" y="0px"
	 viewBox="0 0 64 64" style="enable-background:new 0 0 64 64;" xml:space="preserve">
<style type="text/css">
	.st0{fill:none;}
	.st1{fill:#FFFFFF;stroke:#3F3F3F;stroke-miterlimit:10;}
	.st2{fill:#FF31A7;stroke:#3F3F3F;stroke-miterlimit:10;}
	.st3{fill:#232323;}
</style>
<line class="st0" x1="87.7" y1="-7.4" x2="87.7" y2="-7.4"/>
<g>
	<path class="st1" d="M58.4,25.8V43c0,6.6-5.4,12-12,12H15.8c-6.6,0-12-5.4-12-12V25.8c0-0.9,0.1-1.8,0.3-2.7c1.5,2.1,4,3.4,6.7,3.4
		h39.2c2.3,0,4.4-0.9,5.9-2.5c0.7-0.7,1.3-1.5,1.7-2.4C58.1,23,58.4,24.4,58.4,25.8z"/>
	<path class="st2" d="M57.6,21.7c-0.4,0.9-1,1.7-1.7,2.4c-1.5,1.5-3.6,2.5-5.9,2.5H10.8c-2.7,0-5.2-1.3-6.7-3.4
		c1.2-5.3,6-9.3,11.7-9.3h30.6C51.5,13.8,55.9,17.1,57.6,21.7z"/>
	<circle class="st1" cx="16.3" cy="20.8" r="3.4"/>
	<circle class="st1" cx="25.6" cy="20.8" r="3.4"/>
	<circle class="st1" cx="35.5" cy="20.8" r="3.4"/>
	<circle class="st1" cx="45.5" cy="20.8" r="3.4"/>
	<path d="M23.2,30.9c3.2,0,5.5,2.2,5.5,4.9c0,1.9-0.9,3.4-4.1,6.7l-4.8,5v0.1h9.3v1.5H17.5V48l6.3-6.7c2.6-2.7,3.2-3.8,3.2-5.3
		c0-2-1.6-3.5-3.8-3.5c-2.4,0-4.2,1.6-4.2,3.8h-1.6C17.4,33.2,19.9,30.9,23.2,30.9z M31.4,40.2c0-5.6,2.4-9.2,6.5-9.2
		c4.1,0,6.5,3.6,6.5,9.2c0,5.7-2.4,9.3-6.5,9.3S31.4,45.9,31.4,40.2z M42.7,40.2c0-4.7-1.8-7.7-4.8-7.7c-3,0-4.8,3.1-4.8,7.7
		c0,4.8,1.7,7.8,4.8,7.8S42.7,44.9,42.7,40.2z"/>
	<path class="st3" d="M16.3,20.9L16.3,20.9c-1.1,0-2.1-0.9-2.1-2.1v-7.8c0-1.1,0.9-2.1,2.1-2.1h0c1.1,0,2.1,0.9,2.1,2.1v7.8
		C18.4,20,17.4,20.9,16.3,20.9z"/>
	<path class="st3" d="M45.5,20.9L45.5,20.9c-1.1,0-2.1-0.9-2.1-2.1v-7.8c0-1.1,0.9-2.1,2.1-2.1h0c1.1,0,2.1,0.9,2.1,2.1v7.8
		C47.6,20,46.6,20.9,45.5,20.9z"/>
</g>
</svg>
