<?xml version="1.0" encoding="utf-8"?>
<!-- Generator: Adobe Illustrator 24.0.1, SVG Export Plug-In . SVG Version: 6.00 Build 0)  -->
<svg version="1.1" id="Layer_1" xmlns="http://www.w3.org/2000/svg" xmlns:xlink="http://www.w3.org/1999/xlink" x="0px" y="0px"
	 viewBox="0 0 64 64" style="enable-background:new 0 0 64 64;" xml:space="preserve">
<style type="text/css">
	.st0{fill:none;}
	.st1{fill:#FFDA00;stroke:#424242;stroke-miterlimit:10;}
	.st2{fill:#A8FF43;}
	.st3{fill:none;stroke:#6D6D6D;stroke-miterlimit:10;}
</style>
<line class="st0" x1="87.7" y1="-7.4" x2="87.7" y2="-7.4"/>
<circle class="st1" cx="9.8" cy="20.4" r="4.6"/>
<circle class="st1" cx="10" cy="32.4" r="4.6"/>
<circle class="st1" cx="10.2" cy="44.4" r="4.6"/>
<rect x="17.9" y="12.5" class="st1" width="41.3" height="39.8"/>
<path class="st2" d="M10.6,22.1l-0.2,0.3c-0.3,0.4-0.9,0.5-1.3,0.2l-5.1-3.8c-0.4-0.3-0.5-0.9-0.2-1.3L4,17.2
	c0.3-0.4,0.9-0.5,1.3-0.2l5.1,3.8C10.8,21.1,10.9,21.7,10.6,22.1z"/>
<path class="st2" d="M9,22.4l-0.2-0.1c-0.4-0.3-0.5-0.9-0.2-1.3l5.6-7.5c0.3-0.4,0.9-0.5,1.3-0.2l0.2,0.1c0.4,0.3,0.5,0.9,0.2,1.3
	l-5.6,7.5C9.9,22.6,9.4,22.6,9,22.4z"/>
<line class="st3" x1="22.4" y1="20.4" x2="53.6" y2="20.4"/>
<line class="st3" x1="22.7" y1="32" x2="53.9" y2="32"/>
<line class="st3" x1="22.7" y1="43.9" x2="53.9" y2="43.9"/>
</svg>
