<?xml version="1.0" encoding="utf-8"?>
<!-- Generator: Adobe Illustrator 24.0.1, SVG Export Plug-In . SVG Version: 6.00 Build 0)  -->
<svg version="1.1" id="Layer_1" xmlns="http://www.w3.org/2000/svg" xmlns:xlink="http://www.w3.org/1999/xlink" x="0px" y="0px"
	 viewBox="0 0 64 64" style="enable-background:new 0 0 64 64;" xml:space="preserve">
<style type="text/css">
	.st0{fill:none;}
	.st1{fill:#1AB3FF;}
	.st2{fill:none;stroke:#FFFFFF;stroke-miterlimit:10;}
</style>
<line class="st0" x1="87.7" y1="-7.4" x2="87.7" y2="-7.4"/>
<path class="st1" d="M44.6,57.7H19.3c-6.6,0-12-5.4-12-12V18.3c0-6.6,5.4-12,12-12h25.3c6.6,0,12,5.4,12,12v27.3
	C56.6,52.3,51.2,57.7,44.6,57.7z"/>
<line class="st2" x1="14" y1="16.6" x2="50.8" y2="16.6"/>
<line class="st2" x1="14" y1="21.9" x2="50.8" y2="21.9"/>
<line class="st2" x1="14" y1="26.6" x2="50.8" y2="26.6"/>
<line class="st2" x1="13.8" y1="32" x2="50.6" y2="32"/>
<line class="st2" x1="13.8" y1="36.7" x2="50.6" y2="36.7"/>
<line class="st2" x1="13.8" y1="42.6" x2="50.6" y2="42.6"/>
<line class="st2" x1="13.4" y1="49.2" x2="50.2" y2="49.2"/>
</svg>
