<?xml version="1.0" encoding="utf-8"?>
<!-- Generator: Adobe Illustrator 24.0.1, SVG Export Plug-In . SVG Version: 6.00 Build 0)  -->
<svg version="1.1" id="Layer_1" xmlns="http://www.w3.org/2000/svg" xmlns:xlink="http://www.w3.org/1999/xlink" x="0px" y="0px"
	 viewBox="0 0 64 64" style="enable-background:new 0 0 64 64;" xml:space="preserve">
<style type="text/css">
	.st0{display:none;}
	.st1{display:inline;opacity:0.25;filter:url(#o);enable-background:new    ;}
	.st2{display:inline;fill:url(#SVGID_1_);}
	.st3{display:inline;fill:url(#SVGID_2_);}
	.st4{display:inline;fill:url(#SVGID_3_);}
	.st5{display:inline;fill:url(#SVGID_4_);}
	
		.st6{display:inline;fill:url(#SVGID_5_);stroke:#0D224D;stroke-width:0.8866;stroke-linecap:round;stroke-linejoin:round;stroke-miterlimit:10.5445;}
	.st7{display:inline;}
	.st8{opacity:0.8;filter:url(#n);enable-background:new    ;}
	.st9{fill:#4678CC;}
	.st10{opacity:0.8;filter:url(#m);enable-background:new    ;}
	.st11{filter:url(#g);}
	.st12{opacity:0.3;fill:#FFFFFF;}
	.st13{filter:url(#a);}
	.st14{opacity:0.2;filter:url(#i);enable-background:new    ;}
	.st15{fill:#FFFFFF;}
	.st16{filter:url(#j);}
	.st17{filter:url(#k);}
	.st18{opacity:0.45;filter:url(#f);enable-background:new    ;}
	.st19{fill:#4397EE;}
	.st20{filter:url(#h);}
	.st21{opacity:0.8542;fill:#FFFFFF;}
	.st22{fill:#282828;}
	.st23{fill:#494949;}
	.st24{opacity:0.4;fill:#C9C9C9;}
</style>
<filter  color-interpolation-filters="sRGB" height="1.072" id="o" width="1.072" x="-.036" y="-.036">
	<feGaussianBlur  stdDeviation="0.34141016"></feGaussianBlur>
</filter>
<filter  color-interpolation-filters="sRGB" height="1.26" id="n" width="1.2196" x="-.10978" y="-.12999">
	<feGaussianBlur  stdDeviation="0.15227829"></feGaussianBlur>
</filter>
<filter  color-interpolation-filters="sRGB" height="1.4865" id="m" width="1.3797" x="-.18987" y="-.24323">
	<feGaussianBlur  stdDeviation="0.15227829"></feGaussianBlur>
</filter>
<filter  color-interpolation-filters="sRGB" height="1.4958" id="k" width="1.4652" x="-.23258" y="-.24791">
	<feGaussianBlur  stdDeviation="1.0607186"></feGaussianBlur>
</filter>
<filter  color-interpolation-filters="sRGB" height="1.0248" id="j" width="1.0233" x="-.011629" y="-.012396">
	<feGaussianBlur  stdDeviation="0.030455491"></feGaussianBlur>
</filter>
<filter  color-interpolation-filters="sRGB" height="1.1313" id="i" width="1.1105" x="-.055239" y="-.06566">
	<feGaussianBlur  stdDeviation="0.7624247"></feGaussianBlur>
</filter>
<filter  color-interpolation-filters="sRGB" height="1.4958" id="h" width="1.4652" x="-.23258" y="-.24791">
	<feGaussianBlur  stdDeviation="0.51209235"></feGaussianBlur>
</filter>
<filter  color-interpolation-filters="sRGB" height="1.124" id="g" width="1.1163" x="-.058145" y="-.061978">
	<feGaussianBlur  stdDeviation="0.12802309"></feGaussianBlur>
</filter>
<filter  color-interpolation-filters="sRGB" height="1.6175" id="f" width="1.3926" x="-.19628" y="-.30877">
	<feGaussianBlur  stdDeviation="2.9878037"></feGaussianBlur>
</filter>
<filter  color-interpolation-filters="sRGB" height="1.1331" id="a" width="1.1249" x="-.062444" y="-.06656">
	<feGaussianBlur  stdDeviation="0.085527836"></feGaussianBlur>
</filter>
<g transform="matrix(.69746 0 0 .69746 2.5613 2.566)" class="st0">
	<g class="st1">
		<circle cx="42.2" cy="42.2" r="30"/>
	</g>
	
		<linearGradient id="SVGID_1_" gradientUnits="userSpaceOnUse" x1="-234.4699" y1="418.1626" x2="-234.4699" y2="395.4026" gradientTransform="matrix(2.6361 0 0 -2.6361 660.2993 1101.5171)">
		<stop  offset="0" style="stop-color:#CCCCCC"/>
		<stop  offset="1" style="stop-color:#EBEBEB"/>
	</linearGradient>
	<circle class="st2" cx="42.2" cy="42.2" r="43"/>
	
		<linearGradient id="SVGID_2_" gradientUnits="userSpaceOnUse" x1="-236.23" y1="14.0001" x2="-236.23" y2="-1.8699" gradientTransform="matrix(2.6678 0 0 -2.6678 672.4119 49.152)">
		<stop  offset="0" style="stop-color:#666666"/>
		<stop  offset="1" style="stop-color:#9F9F9F"/>
	</linearGradient>
	<circle class="st3" cx="42.2" cy="42.2" r="30.1"/>
	
		<linearGradient id="SVGID_3_" gradientUnits="userSpaceOnUse" x1="-234.4699" y1="9.3936" x2="-234.4699" y2="-3.3064" gradientTransform="matrix(2.6361 0 0 -2.6361 660.2993 42.964)">
		<stop  offset="0" style="stop-color:#333333"/>
		<stop  offset="1" style="stop-color:#666666"/>
	</linearGradient>
	<circle class="st4" cx="42.2" cy="42.2" r="24"/>
	
		<linearGradient id="SVGID_4_" gradientUnits="userSpaceOnUse" x1="-234.4736" y1="7.8877" x2="-234.4736" y2="-2.7037" gradientTransform="matrix(2.6361 0 0 -2.6361 660.2993 42.964)">
		<stop  offset="0" style="stop-color:#000000"/>
		<stop  offset="1" style="stop-color:#121212"/>
	</linearGradient>
	<path class="st5" d="M42.2,22.2c11,0.8,20,9,20,20s-9,20-20,20s-20.5-9-20-20C22.7,31,33.1,21.6,42.2,22.2z"/>
	
		<radialGradient id="SVGID_5_" cx="920.6158" cy="-2067.3406" r="38.4821" gradientTransform="matrix(0.2589 0 0 -0.2174 -196.0991 -407.2454)" gradientUnits="userSpaceOnUse">
		<stop  offset="0" style="stop-color:#2561DB;stop-opacity:0.9412"/>
		<stop  offset="1" style="stop-color:#0D0D0D"/>
	</radialGradient>
	<circle class="st6" cx="42.2" cy="42.2" r="15.6"/>
	<g class="st7">
		<g class="st8">
			<path class="st9" d="M28.9,34.7l5.5,3.1c0,0,1.7-1.8,2.9-2.6c1.3-0.9,4.2-1.6,4.1-1.4l-0.9-6.7C40.6,27.1,34.4,26.5,28.9,34.7
				L28.9,34.7z"/>
		</g>
		<g class="st10">
			<path class="st9" d="M28.3,35.7l5.9,2.6c0,0-0.3,0.8-0.5,1.6c-0.1,0.8,0,1.5,0,1.5l-6.8-0.1C26.9,41.3,27.2,37.4,28.3,35.7
				L28.3,35.7z"/>
		</g>
		<g transform="translate(0,-280.07)">
			<g class="st11">
				
					<ellipse transform="matrix(0.7557 -0.6549 0.6549 0.7557 -198.1117 100.0597)" class="st12" cx="35.1" cy="315.6" rx="1.7" ry="1"/>
			</g>
			<g class="st13">
				
					<ellipse transform="matrix(0.7557 -0.6549 0.6549 0.7557 -199.7024 102.4099)" class="st12" cx="37.4" cy="318.9" rx="0.7" ry="0.4"/>
			</g>
			<g class="st14">
				
					<ellipse transform="matrix(0.8312 -0.556 0.556 0.8312 -175.59 82.2789)" class="st15" cx="47.7" cy="330.3" rx="6.9" ry="4.3"/>
			</g>
			<g class="st16">
				
					<ellipse transform="matrix(0.7557 -0.6549 0.6549 0.7557 -204.0764 109.7983)" class="st12" cx="45.1" cy="328.5" rx="1.3" ry="0.8"/>
			</g>
			<g class="st17">
				
					<ellipse transform="matrix(0.7557 -0.6549 0.6549 0.7557 -205.8248 113.2142)" class="st15" cx="48.8" cy="332.5" rx="2.8" ry="1.7"/>
			</g>
		</g>
		<g transform="translate(0,-280.07)">
			<g class="st18">
				
					<ellipse transform="matrix(0.8614 -0.5079 0.5079 0.8614 -160.1867 69.3179)" class="st19" cx="46.9" cy="328.2" rx="7.9" ry="4.9"/>
			</g>
			<g class="st20">
				
					<ellipse transform="matrix(0.7557 -0.6549 0.6549 0.7557 -198.3235 100.3639)" class="st21" cx="35.4" cy="316" rx="0.9" ry="0.5"/>
			</g>
			<g class="st13">
				
					<ellipse transform="matrix(0.7557 -0.6549 0.6549 0.7557 -201.5074 105.5954)" class="st12" cx="40.8" cy="322.9" rx="0.5" ry="0.3"/>
			</g>
		</g>
	</g>
</g>
<circle class="st22" cx="32" cy="32" r="24.6"/>
<circle class="st23" cx="32" cy="32" r="15.7"/>
<circle class="st24" cx="27.7" cy="29.2" r="10"/>
</svg>
