<?xml version="1.0" encoding="utf-8"?>
<!-- Generator: Adobe Illustrator 24.0.1, SVG Export Plug-In . SVG Version: 6.00 Build 0)  -->
<svg version="1.1" id="Layer_1" xmlns="http://www.w3.org/2000/svg" xmlns:xlink="http://www.w3.org/1999/xlink" x="0px" y="0px"
	 viewBox="0 0 64 64" style="enable-background:new 0 0 64 64;" xml:space="preserve">
<style type="text/css">
	.st0{fill:#B3FF78;stroke:#3F3F3F;stroke-miterlimit:10;}
</style>
<g id="_x31_5_refresh">
	<path class="st0" d="M39.4,58.3c0-0.6-0.1-2.9-0.2-3.2c12.1-3.5,20.2-15.6,18.1-28.7c-2.3-14-15.4-23.5-29.4-21.2
		S4.4,20.6,6.7,34.6c1.2,7.3,5.4,13.5,11.2,17.3c1,0.7,2.4,0.4,3.1-0.6c0.7-1,0.4-2.4-0.6-3.1c-4.8-3.1-8.3-8.2-9.3-14.3
		C9.2,22.3,17,11.5,28.6,9.6s22.4,6,24.3,17.5c1.7,10.3-4.4,20-13.9,23.3c0-0.6,0,0-0.2-3.3c0-0.7-0.8-1-1.3-0.7l-9.3,6.1
		c-0.5,0.4-0.5,1.2,0.1,1.5l9.9,5.1C38.8,59.4,39.5,58.9,39.4,58.3L39.4,58.3z"/>
</g>
<path class="st0" d="M22,42.3L22,42.3c-1-1-1-2.7,0-3.8l9.8-9.8c1-1,2.7-1,3.8,0l0,0c1,1,1,2.7,0,3.8l-9.8,9.8
	C24.7,43.3,23,43.3,22,42.3z"/>
<path class="st0" d="M33.6,33.7L33.6,33.7c-1.5,0-2.7-1.2-2.7-2.7V17.2c0-1.5,1.2-2.7,2.7-2.7h0c1.5,0,2.7,1.2,2.7,2.7V31
	C36.3,32.5,35.1,33.7,33.6,33.7z"/>
</svg>
