<?xml version="1.0" encoding="utf-8"?>
<!-- Generator: Adobe Illustrator 24.0.1, SVG Export Plug-In . SVG Version: 6.00 Build 0)  -->
<svg version="1.1" id="Layer_1" xmlns="http://www.w3.org/2000/svg" xmlns:xlink="http://www.w3.org/1999/xlink" x="0px" y="0px"
	 viewBox="0 0 64 64" style="enable-background:new 0 0 64 64;" xml:space="preserve">
<style type="text/css">
	.st0{fill:#FFFFFF;}
	.st1{fill:#F73E6B;}
	.st2{fill:#004259;}
	.st3{fill:#2E6FB7;}
</style>
<path class="st0" d="M17-5.8"/>
<g>
	<path class="st1" d="M33.5,31.1H8.3c-2.5,0-4.6-4.5-4.6-10.2l0,0c0-5.5,2-10.2,4.6-10.2h25.2c2.5,0,4.6,4.5,4.6,10.2l0,0
		C38.1,26.7,36.1,31.1,33.5,31.1z"/>
	<path class="st2" d="M25.2,36.4h-9.8c-1,0-1.8-1.2-1.8-2.6l0,0c0-1.4,0.8-2.6,1.8-2.6h9.8c1,0,1.8,1.2,1.8,2.6l0,0
		C27,35.2,26.2,36.4,25.2,36.4z"/>
</g>
<path class="st3" d="M53.2,46.7H28.1c-2.5,0-4.6-4.5-4.6-10.2l0,0c0-5.5,2-10.2,4.6-10.2h25.2c2.5,0,4.6,4.5,4.6,10.2l0,0
	C57.8,42.2,55.8,46.7,53.2,46.7z"/>
<path class="st2" d="M44.9,51.9h-9.8c-1,0-1.8-1.2-1.8-2.6l0,0c0-1.4,0.8-2.6,1.8-2.6h9.8c1,0,1.8,1.2,1.8,2.6l0,0
	C46.7,50.7,45.9,51.9,44.9,51.9z"/>
</svg>
