<?xml version="1.0" encoding="utf-8"?>
<!-- Generator: Adobe Illustrator 24.0.1, SVG Export Plug-In . SVG Version: 6.00 Build 0)  -->
<svg version="1.1" id="Layer_1" xmlns="http://www.w3.org/2000/svg" xmlns:xlink="http://www.w3.org/1999/xlink" x="0px" y="0px"
	 viewBox="0 0 64 64" style="enable-background:new 0 0 64 64;" xml:space="preserve">
<style type="text/css">
	.st0{fill:#FFFFFF;}
	.st1{fill-rule:evenodd;clip-rule:evenodd;fill:#FF5A89;}
</style>
<path class="st0" d="M17-5.8"/>
<g>
	<path class="st1" d="M48.3,40.3v2.1c0,1.4-0.1,2.7-0.4,4.1c-0.2,1.4-1,2.6-2.2,3.4h-0.1c-1.2,0.9-2.7,1.5-4.2,1.5l-1.2,0.1
		c-1.8,0.1-3.6-0.7-4.8-2.1c-1.2-1.5-1.6-3.6-0.9-5.4v-0.1c0.6-1.8,2.1-3.1,4-3.6l4.6-1.2c1.2-0.3,2-1.4,2-2.6v-3.1l0,0V20.4
		c0-0.3-0.1-0.6-0.4-0.8c-0.2-0.2-0.6-0.3-0.9-0.2l-19.6,4c-0.7,0.1-1.2,0.7-1.2,1.5v21l0,0v1.5c0,1.4-0.1,2.7-0.4,4.1
		c-0.2,1.4-1,2.6-2.2,3.4h-0.1c-1.2,0.9-2.7,1.5-4.2,1.5l-1.1,0.1c-1.8,0.1-3.6-0.7-4.8-2.1C9,52.9,8.7,50.9,9.4,49V49
		c0.6-1.8,2.1-3.1,4-3.6l4.6-1.2c1.2-0.3,2-1.4,2-2.6v-3.1l0,0V14.2c0-1.1,0.8-2,1.8-2.2l24.6-4.5c0.5-0.1,0.9,0.1,1.3,0.3
		c0.3,0.3,0.6,0.7,0.6,1.2L48.3,40.3L48.3,40.3z"/>
	<path class="st1" d="M48.3,40.3v2.1c0,1.4-0.1,2.7-0.4,4.1c-0.2,1.4-1,2.6-2.2,3.4h-0.1c-1.2,0.9-2.7,1.5-4.2,1.5l-1.2,0.1
		c-1.8,0.1-3.6-0.7-4.8-2.1c-1.2-1.5-1.6-3.6-0.9-5.4v-0.1c0.6-1.8,2.1-3.1,4-3.6l4.6-1.2c1.2-0.3,2-1.4,2-2.6v-3.1l0,0V20.4
		c0-0.3-0.1-0.6-0.4-0.8c-0.2-0.2-0.6-0.3-0.9-0.2l-19.6,4c-0.7,0.1-1.2,0.7-1.2,1.5v21l0,0v1.5c0,1.4-0.1,2.7-0.4,4.1
		c-0.2,1.4-1,2.6-2.2,3.4h-0.1c-1.2,0.9-2.7,1.5-4.2,1.5l-1.1,0.1c-1.8,0.1-3.6-0.7-4.8-2.1C9,52.9,8.7,50.9,9.4,49V49
		c0.6-1.8,2.1-3.1,4-3.6l4.6-1.2c1.2-0.3,2-1.4,2-2.6v-3.1l0,0V14.2c0-1.1,0.8-2,1.8-2.2l24.6-4.5c0.5-0.1,0.9,0.1,1.3,0.3
		c0.3,0.3,0.6,0.7,0.6,1.2L48.3,40.3L48.3,40.3z"/>
	<path class="st1" d="M48.3,40.3v2.1c0,1.4-0.1,2.7-0.4,4.1c-0.2,1.4-1,2.6-2.2,3.4h-0.1c-1.2,0.9-2.7,1.5-4.2,1.5l-1.2,0.1
		c-1.8,0.1-3.6-0.7-4.8-2.1c-1.2-1.5-1.6-3.6-0.9-5.4v-0.1c0.6-1.8,2.1-3.1,4-3.6l4.6-1.2c1.2-0.3,2-1.4,2-2.6v-3.1l0,0V20.4
		c0-0.3-0.1-0.6-0.4-0.8c-0.2-0.2-0.6-0.3-0.9-0.2l-19.6,4c-0.7,0.1-1.2,0.7-1.2,1.5v21l0,0v1.5c0,1.4-0.1,2.7-0.4,4.1
		c-0.2,1.4-1,2.6-2.2,3.4h-0.1c-1.2,0.9-2.7,1.5-4.2,1.5l-1.1,0.1c-1.8,0.1-3.6-0.7-4.8-2.1C9,52.9,8.7,50.9,9.4,49V49
		c0.6-1.8,2.1-3.1,4-3.6l4.6-1.2c1.2-0.3,2-1.4,2-2.6v-3.1l0,0V14.2c0-1.1,0.8-2,1.8-2.2l24.6-4.5c0.5-0.1,0.9,0.1,1.3,0.3
		c0.3,0.3,0.6,0.7,0.6,1.2L48.3,40.3L48.3,40.3z"/>
	<path class="st1" d="M48.3,40.3v2.1c0,1.4-0.1,2.7-0.4,4.1c-0.2,1.4-1,2.6-2.2,3.4h-0.1c-1.2,0.9-2.7,1.5-4.2,1.5l-1.2,0.1
		c-1.8,0.1-3.6-0.7-4.8-2.1c-1.2-1.5-1.6-3.6-0.9-5.4v-0.1c0.6-1.8,2.1-3.1,4-3.6l4.6-1.2c1.2-0.3,2-1.4,2-2.6v-3.1l0,0V20.4
		c0-0.3-0.1-0.6-0.4-0.8c-0.2-0.2-0.6-0.3-0.9-0.2l-19.6,4c-0.7,0.1-1.2,0.7-1.2,1.5v21l0,0v1.5c0,1.4-0.1,2.7-0.4,4.1
		c-0.2,1.4-1,2.6-2.2,3.4h-0.1c-1.2,0.9-2.7,1.5-4.2,1.5l-1.1,0.1c-1.8,0.1-3.6-0.7-4.8-2.1C9,52.9,8.7,50.9,9.4,49V49
		c0.6-1.8,2.1-3.1,4-3.6l4.6-1.2c1.2-0.3,2-1.4,2-2.6v-3.1l0,0V14.2c0-1.1,0.8-2,1.8-2.2l24.6-4.5c0.5-0.1,0.9,0.1,1.3,0.3
		c0.3,0.3,0.6,0.7,0.6,1.2L48.3,40.3L48.3,40.3z"/>
	<path class="st1" d="M48.3,40.3v2.1c0,1.4-0.1,2.7-0.4,4.1c-0.2,1.4-1,2.6-2.2,3.4h-0.1c-1.2,0.9-2.7,1.5-4.2,1.5l-1.2,0.1
		c-1.8,0.1-3.6-0.7-4.8-2.1c-1.2-1.5-1.6-3.6-0.9-5.4v-0.1c0.6-1.8,2.1-3.1,4-3.6l4.6-1.2c1.2-0.3,2-1.4,2-2.6v-3.1l0,0V20.4
		c0-0.3-0.1-0.6-0.4-0.8c-0.2-0.2-0.6-0.3-0.9-0.2l-19.6,4c-0.7,0.1-1.2,0.7-1.2,1.5v21l0,0v1.5c0,1.4-0.1,2.7-0.4,4.1
		c-0.2,1.4-1,2.6-2.2,3.4h-0.1c-1.2,0.9-2.7,1.5-4.2,1.5l-1.1,0.1c-1.8,0.1-3.6-0.7-4.8-2.1C9,52.9,8.7,50.9,9.4,49V49
		c0.6-1.8,2.1-3.1,4-3.6l4.6-1.2c1.2-0.3,2-1.4,2-2.6v-3.1l0,0V14.2c0-1.1,0.8-2,1.8-2.2l24.6-4.5c0.5-0.1,0.9,0.1,1.3,0.3
		c0.3,0.3,0.6,0.7,0.6,1.2L48.3,40.3L48.3,40.3z"/>
</g>
</svg>
