<?xml version="1.0" encoding="utf-8"?>
<!-- Generator: Adobe Illustrator 24.0.1, SVG Export Plug-In . SVG Version: 6.00 Build 0)  -->
<svg version="1.1" id="Layer_1" xmlns="http://www.w3.org/2000/svg" xmlns:xlink="http://www.w3.org/1999/xlink" x="0px" y="0px"
	 viewBox="0 0 64 64" style="enable-background:new 0 0 64 64;" xml:space="preserve">
<style type="text/css">
	.st0{fill:#919191;}
	.st1{fill:#C6C6C6;}
	.st2{fill:#FFFFFF;}
	.st3{fill:#0BAEFF;}
	.st4{fill:none;}
	.st5{fill:#6D6D6D;}
</style>
<path class="st0" d="M48.3,55.1H13.9c-2.4,0-4.4-2-4.4-4.4V11.9c0-2.4,2-4.4,4.4-4.4h34.4c2.4,0,4.4,2,4.4,4.4v38.9
	C52.7,53.2,50.7,55.1,48.3,55.1z"/>
<path class="st1" d="M45.3,51.6H17c-2.7,0-4.8-2.2-4.8-4.8V14.5c0-2.7,2.2-4.8,4.8-4.8h28.3c2.7,0,4.8,2.2,4.8,4.8v32.3
	C50.1,49.4,47.9,51.6,45.3,51.6z"/>
<rect x="19.3" y="16.9" class="st2" width="23.8" height="28"/>
<line class="st3" x1="22.6" y1="24.5" x2="40.5" y2="24.5"/>
<line class="st3" x1="22.6" y1="28.7" x2="40.5" y2="28.7"/>
<line class="st3" x1="22.6" y1="33.4" x2="40.5" y2="33.4"/>
<line class="st3" x1="22.6" y1="37.7" x2="40.5" y2="37.7"/>
<line class="st4" x1="87.7" y1="-7.4" x2="87.7" y2="-7.4"/>
<rect x="4.1" y="29.7" class="st5" width="53.5" height="3.8"/>
</svg>
