<?xml version="1.0" encoding="utf-8"?>
<!-- Generator: Adobe Illustrator 24.0.1, SVG Export Plug-In . SVG Version: 6.00 Build 0)  -->
<svg version="1.1" id="Layer_1" xmlns="http://www.w3.org/2000/svg" xmlns:xlink="http://www.w3.org/1999/xlink" x="0px" y="0px"
	 viewBox="0 0 64 64" style="enable-background:new 0 0 64 64;" xml:space="preserve">
<style type="text/css">
	.st0{fill:none;}
	.st1{fill:#FAA41A;}
	.st2{fill:#FFFFFF;}
</style>
<line class="st0" x1="87.7" y1="-7.4" x2="87.7" y2="-7.4"/>
<path class="st1" d="M59.2,55.6H4.1c-1.6,0-2.8-1.3-2.8-2.8V10.9c0-1.6,1.3-2.8,2.8-2.8h55.1c1.6,0,2.8,1.3,2.8,2.8v41.9
	C62,54.4,60.8,55.6,59.2,55.6z"/>
<g>
	<path class="st2" d="M5.6,23.1v6.2c0,2.3,1,3.3,2.4,3.3c1.6,0,2.5-1,2.5-3.3v-6.2H12v6.1c0,3.2-1.7,4.5-4,4.5
		c-2.1,0-3.8-1.2-3.8-4.5v-6.2H5.6z"/>
	<path class="st2" d="M14.3,23.2c0.6-0.1,1.5-0.2,2.5-0.2c1.4,0,2.2,0.2,2.9,0.8c0.5,0.4,0.9,1,0.9,1.8c0,1-0.7,1.9-1.8,2.3v0
		c1,0.2,2.2,1.1,2.2,2.6c0,0.9-0.4,1.6-0.9,2.1c-0.7,0.7-1.9,1-3.6,1c-0.9,0-1.6-0.1-2.1-0.1V23.2z M15.7,27.5h1.2
		c1.4,0,2.3-0.7,2.3-1.8c0-1.2-0.9-1.7-2.3-1.7c-0.6,0-1,0-1.2,0.1V27.5z M15.7,32.6c0.3,0,0.7,0.1,1.1,0.1c1.4,0,2.7-0.5,2.7-2
		c0-1.4-1.2-2-2.7-2h-1.1L15.7,32.6L15.7,32.6z"/>
	<path class="st2" d="M24.1,23.1v6.2c0,2.3,1,3.3,2.4,3.3c1.6,0,2.5-1,2.5-3.3v-6.2h1.4v6.1c0,3.2-1.7,4.5-4,4.5
		c-2.1,0-3.8-1.2-3.8-4.5v-6.2H24.1z"/>
	<path class="st2" d="M32.8,33.6V23.1h1.5l3.4,5.3c0.8,1.2,1.4,2.3,1.9,3.4l0,0c-0.1-1.4-0.2-2.7-0.2-4.3v-4.4h1.3v10.5h-1.4
		L36,28.3c-0.7-1.2-1.4-2.4-2-3.5l0,0c0.1,1.3,0.1,2.6,0.1,4.3v4.5H32.8z"/>
	<path class="st2" d="M45,24.3h-3.2v-1.1h7.8v1.1h-3.2v9.3H45V24.3z"/>
	<path class="st2" d="M52.1,23.1v6.2c0,2.3,1,3.3,2.4,3.3c1.6,0,2.5-1,2.5-3.3v-6.2h1.4v6.1c0,3.2-1.7,4.5-4,4.5
		c-2.1,0-3.8-1.2-3.8-4.5v-6.2H52.1z"/>
</g>
<circle class="st2" cx="11.4" cy="40" r="1"/>
<circle class="st2" cx="16.6" cy="40" r="1"/>
<circle class="st2" cx="21.5" cy="40" r="1"/>
<circle class="st2" cx="26" cy="40" r="1"/>
<circle class="st2" cx="31" cy="40" r="1"/>
<circle class="st2" cx="36.3" cy="40" r="1"/>
<circle class="st2" cx="45.7" cy="40" r="1"/>
<circle class="st2" cx="41" cy="40" r="1"/>
<circle class="st2" cx="49.6" cy="40" r="1"/>
</svg>
