<?xml version="1.0" encoding="utf-8"?>
<!-- Generator: Adobe Illustrator 24.0.1, SVG Export Plug-In . SVG Version: 6.00 Build 0)  -->
<svg version="1.1" id="Layer_1" xmlns="http://www.w3.org/2000/svg" xmlns:xlink="http://www.w3.org/1999/xlink" x="0px" y="0px"
	 viewBox="0 0 64 64" style="enable-background:new 0 0 64 64;" xml:space="preserve">
<style type="text/css">
	.st0{display:none;}
	.st1{display:inline;opacity:0.25;enable-background:new    ;}
	.st2{display:inline;fill:url(#SVGID_1_);}
	.st3{display:inline;fill:url(#SVGID_2_);}
	.st4{display:inline;fill:url(#SVGID_3_);}
	.st5{display:inline;fill:url(#SVGID_4_);}
	
		.st6{display:inline;fill:url(#SVGID_5_);stroke:#0D224D;stroke-width:0.6184;stroke-linecap:round;stroke-linejoin:round;stroke-miterlimit:7.3544;}
	.st7{display:inline;}
	.st8{opacity:0.8;enable-background:new    ;}
	.st9{fill:#4678CC;}
	.st10{opacity:0.3;fill:#FFFFFF;enable-background:new    ;}
	.st11{opacity:0.2;enable-background:new    ;}
	.st12{fill:#FFFFFF;}
	.st13{opacity:0.45;enable-background:new    ;}
	.st14{fill:#4397EE;}
	.st15{opacity:0.8542;fill:#FFFFFF;enable-background:new    ;}
	.st16{fill:#D964FF;}
</style>
<g transform="matrix(.69746 0 0 .69746 2.5613 2.566)" class="st0">
	<g class="st1">
		<circle cx="42.2" cy="42.2" r="30"/>
	</g>
	
		<linearGradient id="SVGID_1_" gradientUnits="userSpaceOnUse" x1="-513.1517" y1="349.4665" x2="-513.1517" y2="372.2265" gradientTransform="matrix(1.8386 0 0 1.8386 985.6675 -643.3201)">
		<stop  offset="0" style="stop-color:#CCCCCC"/>
		<stop  offset="1" style="stop-color:#EBEBEB"/>
	</linearGradient>
	<circle class="st2" cx="42.2" cy="42.2" r="43"/>
	
		<linearGradient id="SVGID_2_" gradientUnits="userSpaceOnUse" x1="-518.1224" y1="925.3389" x2="-518.1224" y2="941.2089" gradientTransform="matrix(1.8607 0 0 1.8607 1006.2618 -1709.9604)">
		<stop  offset="0" style="stop-color:#666666"/>
		<stop  offset="1" style="stop-color:#9F9F9F"/>
	</linearGradient>
	<circle class="st3" cx="42.2" cy="42.2" r="30.1"/>
	
		<linearGradient id="SVGID_3_" gradientUnits="userSpaceOnUse" x1="-513.1517" y1="935.5472" x2="-513.1517" y2="948.2473" gradientTransform="matrix(1.8386 0 0 1.8386 985.6675 -1701.8732)">
		<stop  offset="0" style="stop-color:#333333"/>
		<stop  offset="1" style="stop-color:#666666"/>
	</linearGradient>
	<circle class="st4" cx="42.2" cy="42.2" r="24"/>
	
		<linearGradient id="SVGID_4_" gradientUnits="userSpaceOnUse" x1="-513.1569" y1="937.7081" x2="-513.1569" y2="948.2994" gradientTransform="matrix(1.8386 0 0 1.8386 985.6675 -1701.8732)">
		<stop  offset="0" style="stop-color:#000000"/>
		<stop  offset="1" style="stop-color:#121212"/>
	</linearGradient>
	<path class="st5" d="M42.2,22.2c11,0.8,20,9,20,20s-9,20-20,20s-20.5-9-20-20C22.7,31,33.1,21.6,42.2,22.2z"/>
	
		<radialGradient id="SVGID_5_" cx="3040.4753" cy="7288.1353" r="38.474" gradientTransform="matrix(0.1806 0 0 0.1516 -506.7776 -1062.8839)" gradientUnits="userSpaceOnUse">
		<stop  offset="0" style="stop-color:#2561DB;stop-opacity:0.9412"/>
		<stop  offset="1" style="stop-color:#0D0D0D"/>
	</radialGradient>
	<circle class="st6" cx="42.2" cy="42.2" r="15.6"/>
	<g class="st7">
		<g class="st8">
			<path class="st9" d="M28.9,34.7l5.5,3.1c0,0,1.7-1.8,2.9-2.6c1.3-0.9,4.2-1.6,4.1-1.4l-0.9-6.7C40.6,27.1,34.4,26.5,28.9,34.7
				L28.9,34.7z"/>
		</g>
		<g class="st8">
			<path class="st9" d="M28.3,35.7l5.9,2.6c0,0-0.3,0.8-0.5,1.6c-0.1,0.8,0,1.5,0,1.5l-6.8-0.1C26.9,41.3,27.2,37.4,28.3,35.7
				L28.3,35.7z"/>
		</g>
		<g transform="translate(0,-280.07)">
			<g>
				
					<ellipse transform="matrix(0.7557 -0.6549 0.6549 0.7557 -198.0957 100.0785)" class="st10" cx="35.1" cy="315.6" rx="1.7" ry="1"/>
			</g>
			<g>
				
					<ellipse transform="matrix(0.7557 -0.6549 0.6549 0.7557 -199.7176 102.4058)" class="st10" cx="37.4" cy="318.9" rx="0.7" ry="0.4"/>
			</g>
			<g class="st11">
				
					<ellipse transform="matrix(0.8312 -0.556 0.556 0.8312 -175.5926 82.2828)" class="st12" cx="47.7" cy="330.3" rx="6.9" ry="4.3"/>
			</g>
			<g>
				
					<ellipse transform="matrix(0.7557 -0.6549 0.6549 0.7557 -204.1162 109.8148)" class="st10" cx="45.1" cy="328.5" rx="1.3" ry="0.8"/>
			</g>
			<g>
				
					<ellipse transform="matrix(0.7557 -0.6549 0.6549 0.7557 -205.8501 113.1975)" class="st12" cx="48.8" cy="332.5" rx="2.8" ry="1.7"/>
			</g>
		</g>
		<g transform="translate(0,-280.07)">
			<g class="st13">
				
					<ellipse transform="matrix(0.8614 -0.5079 0.5079 0.8614 -160.199 69.3096)" class="st14" cx="46.9" cy="328.2" rx="7.9" ry="4.9"/>
			</g>
			<g>
				
					<ellipse transform="matrix(0.7557 -0.6549 0.6549 0.7557 -198.2966 100.36)" class="st15" cx="35.4" cy="316" rx="0.9" ry="0.5"/>
			</g>
			<g>
				
					<ellipse transform="matrix(0.7557 -0.6549 0.6549 0.7557 -201.4986 105.5946)" class="st10" cx="40.8" cy="322.9" rx="0.5" ry="0.3"/>
			</g>
		</g>
	</g>
</g>
<path class="st16" d="M11.9,20.9l6,2.4c1.3,0.5,2.8-0.1,3.3-1.4c0.5-1.3-0.1-2.8-1.4-3.3l-0.9-0.4c3.8-2.4,8.3-3.6,12.8-3.6
	c4.1,0,8.2,1,11.7,3c1.2,0.7,2.8,0.2,3.5-1c0.7-1.2,0.2-2.8-1-3.5c-4.3-2.4-9.2-3.7-14.2-3.7c-5.5,0-10.9,1.5-15.5,4.4l-0.1,0.1
	l0.3-1.5c0.3-1.4-0.6-2.7-2-3c-1.4-0.3-2.7,0.6-3,2l-1.2,6C9.7,18.8,10.6,20.4,11.9,20.9z"/>
<path class="st16" d="M51.5,42.2l-4.9-2.5c-1.4-0.7-3-0.1-3.7,1.2c-0.7,1.4-0.1,3,1.2,3.7l1.9,0.9l-0.9,0.5c-3.8,2-7.9,3-12.2,3
	c-4.1,0-8.1-0.9-11.8-2.8c-1.4-0.7-3-0.1-3.7,1.2c-0.7,1.4-0.1,3,1.2,3.7c4.4,2.2,9.3,3.4,14.3,3.4c4.8,0,9.5-1.1,13.9-3.2
	c-0.2,1.5,0.7,2.8,2.2,3.1c1.5,0.3,2.9-0.7,3.2-2.2l1.3-6.3C53.7,44.6,52.9,42.8,51.5,42.2z"/>
</svg>
