<?xml version="1.0" encoding="utf-8"?>
<!-- Generator: Adobe Illustrator 24.0.1, SVG Export Plug-In . SVG Version: 6.00 Build 0)  -->
<svg version="1.1" id="Layer_1" xmlns="http://www.w3.org/2000/svg" xmlns:xlink="http://www.w3.org/1999/xlink" x="0px" y="0px"
	 viewBox="0 0 64 64" style="enable-background:new 0 0 64 64;" xml:space="preserve">
<style type="text/css">
	.st0{fill:#9E9E9E;}
	.st1{fill:#383838;}
	.st2{fill:#FFFFFF;}
</style>
<path class="st0" d="M30.9,27.8c-2.4-5.6-0.5-12.1,4.4-15.3c5.6-3.6,13.3-1.9,16.9,3.6c3.3,5.1,2.2,12-2.1,15.7
	c-4.1,3.6-9.4,2.8-10.2,2.7c-1.1,1.8-2.3,3.7-3.4,5.5c-3.4-1.8-6.8-3.5-10.2-5.3C27.7,32.3,29.3,30.1,30.9,27.8z"/>
<circle class="st1" cx="42" cy="22.6" r="7.9"/>
<path class="st2" d="M17-5.8"/>
<circle class="st1" cx="28.3" cy="41.8" r="6.9"/>
<path class="st0" d="M28.6,43.4L28.6,43.4c-0.9,1.3-2.6,1.7-3.9,0.8L5.6,31.9C4.3,31,3.9,29.3,4.8,28l0,0c0.9-1.3,2.6-1.7,3.9-0.8
	l19.1,12.4C29.1,40.4,29.5,42.1,28.6,43.4z"/>
</svg>
