<?xml version="1.0" encoding="utf-8"?>
<!-- Generator: Adobe Illustrator 24.0.1, SVG Export Plug-In . SVG Version: 6.00 Build 0)  -->
<svg version="1.1" id="Layer_1" xmlns="http://www.w3.org/2000/svg" xmlns:xlink="http://www.w3.org/1999/xlink" x="0px" y="0px"
	 viewBox="0 0 64 64" style="enable-background:new 0 0 64 64;" xml:space="preserve">
<style type="text/css">
	.st0{fill:none;}
	.st1{fill:#00B1FF;stroke:#3F3F3F;stroke-miterlimit:10;}
	.st2{fill:#00DBFF;stroke:#3F3F3F;stroke-miterlimit:10;}
	.st3{fill:#FFFFFF;stroke:#3F3F3F;stroke-miterlimit:10;}
</style>
<line class="st0" x1="87.7" y1="-7.4" x2="87.7" y2="-7.4"/>
<path class="st1" d="M54.5,55.7H8.8c-3.9,0-7-3.2-7-7V15c0-3.9,3.2-7,7-7h45.6c3.9,0,7,3.2,7,7v33.6C61.5,52.5,58.3,55.7,54.5,55.7z
	"/>
<path class="st2" d="M58.8,15.9v31.9c0,3.1-3.3,5.6-7.3,5.6H12c-4,0-7.3-2.5-7.3-5.6V15.9c0-2.7,2.4-4.8,5.6-5.3
	c0.5-0.1,1.2-0.1,1.7-0.1h39.5c0.7,0,1.3,0,1.9,0.3C56.6,11.2,58.8,13.3,58.8,15.9z"/>
<path class="st3" d="M53.4,10.6L43,29.1l-6,10.8c-2.1,3.9-7.7,3.7-10-0.1l-6.2-10.9L10.3,10.6c0.5-0.1,1.2-0.1,1.7-0.1h39.5
	C52.2,10.4,52.9,10.4,53.4,10.6z"/>
</svg>
