<?xml version="1.0" encoding="utf-8"?>
<!-- Generator: Adobe Illustrator 24.0.1, SVG Export Plug-In . SVG Version: 6.00 Build 0)  -->
<svg version="1.1" id="Layer_1" xmlns="http://www.w3.org/2000/svg" xmlns:xlink="http://www.w3.org/1999/xlink" x="0px" y="0px"
	 viewBox="0 0 64 64" style="enable-background:new 0 0 64 64;" xml:space="preserve">
<style type="text/css">
	.st0{fill:#B752FF;stroke:#3F3F3F;stroke-width:0.5;stroke-miterlimit:10;}
</style>
<path class="st0" d="M32,7.1C17.4,7.1,5.6,18.9,5.6,33.4c0,10.2,5.8,19.1,14.4,23.5l1.2-2.2c-7.7-4-13-12-13-21.3
	c0-13.2,10.7-23.9,23.9-23.9S56,20.2,56,33.4c0,8.4-4.4,15.8-10.9,20.1l1.3,2.1c7.3-4.7,12.1-12.9,12.1-22.2
	C58.4,18.9,46.6,7.1,32,7.1z"/>
<path class="st0" d="M32,11.8c-11.9,0-21.6,9.7-21.6,21.6c0,8.4,4.8,15.7,11.9,19.3l1.4-2.5c-5.9-3.2-10-9.4-10-16.6
	c0-10.4,8.5-18.9,18.9-18.9s18.9,8.5,18.9,18.9c0,6.7-3.5,12.7-8.8,16l1.2,2c5.9-3.9,9.8-10.5,9.8-18.1C53.6,21.5,43.9,11.8,32,11.8
	z"/>
<path class="st0" d="M32.6,17.1c-9.1,0-16.5,7.4-16.5,16.5c0,6.3,3.5,11.7,8.6,14.5l0.2-0.3l0.9-1.7c-0.1-0.1-0.2-0.2-0.3-0.3
	L25.5,46c-4.2-2.5-7-7-7-12.3c0-7.8,6.4-14.2,14.2-14.2s14.2,6.4,14.2,14.2c0,4.8-2.4,9-6,11.6l-0.1-0.1c-0.2,0.2-0.3,0.4-0.5,0.5
	l1,1.6l0.1,0.2c4.6-2.9,7.7-8.1,7.7-14C49.1,24.5,41.7,17.1,32.6,17.1z"/>
</svg>
