<?xml version="1.0" encoding="utf-8"?>
<!-- Generator: Adobe Illustrator 24.0.1, SVG Export Plug-In . SVG Version: 6.00 Build 0)  -->
<svg version="1.1" id="Layer_1" xmlns="http://www.w3.org/2000/svg" xmlns:xlink="http://www.w3.org/1999/xlink" x="0px" y="0px"
	 viewBox="0 0 64 64" style="enable-background:new 0 0 64 64;" xml:space="preserve">
<style type="text/css">
	.st0{fill:#C1C1C1;stroke:#232323;stroke-width:0.5;stroke-miterlimit:10;}
	.st1{fill:#FF577B;stroke:#232323;stroke-width:0.5;stroke-miterlimit:10;}
	.st2{fill:#FFE966;}
</style>
<path class="st0" d="M50.8,29.4H13.2c-4.6,0-8.3-3.7-8.3-8.3v0c0-4.6,3.7-8.3,8.3-8.3h37.5c4.6,0,8.3,3.7,8.3,8.3v0
	C59.1,25.7,55.4,29.4,50.8,29.4z"/>
<path class="st1" d="M50.8,49.3H13.2c-4.6,0-8.3-3.7-8.3-8.3v0c0-4.6,3.7-8.3,8.3-8.3h37.5c4.6,0,8.3,3.7,8.3,8.3v0
	C59.1,45.5,55.4,49.3,50.8,49.3z"/>
<circle class="st2" cx="13.9" cy="40.9" r="7.5"/>
</svg>
