<?xml version="1.0" encoding="utf-8"?>
<!-- Generator: Adobe Illustrator 24.0.1, SVG Export Plug-In . SVG Version: 6.00 Build 0)  -->
<svg version="1.1" id="Layer_1" xmlns="http://www.w3.org/2000/svg" xmlns:xlink="http://www.w3.org/1999/xlink" x="0px" y="0px"
	 viewBox="0 0 64 64" style="enable-background:new 0 0 64 64;" xml:space="preserve">
<style type="text/css">
	.st0{fill:#FF9357;stroke:#3F3F3F;stroke-width:0.5;stroke-miterlimit:10;}
	.st1{fill:none;}
	.st2{font-family:'MyriadPro-Regular';}
	.st3{font-size:36px;}
</style>
<g id="_x31_5_refresh">
	<path class="st0" d="M40.8,7c0-0.6-0.7-1.2-1.3-0.9l-10,4.3c-0.6,0.2-0.7,1-0.2,1.4l8.7,6.6c0.5,0.5,1.2,0.1,1.3-0.5
		c0.4-3.2,0.3-2.6,0.4-3.2c9.1,4,14.3,14.1,11.9,24c-2.7,11.2-14,18.1-25.2,15.4S8.3,40.2,11.1,29c1.4-6,5.3-10.7,10.2-13.4
		c1-0.6,1.5-1.9,0.9-3s-1.9-1.5-3-0.9c-6,3.3-10.7,9-12.4,16.1c-3.3,13.6,5,27.2,18.6,30.5c13.6,3.3,27.2-5,30.7-18.7
		c3-12.7-4-25.2-15.6-29.6C40.4,9.9,40.7,7.6,40.8,7L40.8,7z"/>
</g>
<rect x="18.9" y="22.2" class="st1" width="26.3" height="30.1"/>
<text transform="matrix(1 0 0 1 18.8633 47.797)" class="st0 st2 st3">U</text>
</svg>
