<?xml version="1.0" encoding="utf-8"?>
<!-- Generator: Adobe Illustrator 24.0.1, SVG Export Plug-In . SVG Version: 6.00 Build 0)  -->
<svg version="1.1" id="Layer_1" xmlns="http://www.w3.org/2000/svg" xmlns:xlink="http://www.w3.org/1999/xlink" x="0px" y="0px"
	 viewBox="0 0 64 64" style="enable-background:new 0 0 64 64;" xml:space="preserve">
<style type="text/css">
	.st0{fill:#6B6B6B;stroke:#231F20;stroke-miterlimit:10;}
	.st1{fill:#FF9357;stroke:#231F20;stroke-miterlimit:10;}
	.st2{fill:none;stroke:#231F20;stroke-miterlimit:10;}
	.st3{fill:#FFFFFF;}
</style>
<path class="st0" d="M13.4,7c0,0,0.6-0.4,0.6-0.4c0,0,3.1-2.2,3.1-2.2c10.3,0,20.5,0,30.8,0c0,12.6,0,25.1,0,37.7
	c-0.1,0.9-0.2,2.2-0.6,3.6c-1.4,4.9-5.8,11.9-13.6,13.1c-5.6,0.9-13.2-1.3-15.1-6.1C15.1,43.5,34.8,32,30.9,23.1
	c-1.4-3.1-4.3-2.8-13.3-11.7C15.7,9.6,14.3,8,13.4,7z"/>
<g>
	<path class="st1" d="M44.6,39.5c0,11.1-7,20.1-15.6,20.1c-8.6,0-15.6-9-15.6-20.1c0-11.1,7-20.2,15.6-20.2
		C37.6,19.4,44.6,28.4,44.6,39.5z"/>
	<path class="st1" d="M13.4,39.5V7h31.2v32.5"/>
</g>
<path class="st2" d="M63.3,79.5"/>
<path class="st0" d="M44.6,7c1.1-0.9,2.2-1.8,3.3-2.7"/>
<path class="st3" d="M35.8,22.7l-3.3,0c-0.1,0-0.2,0-0.3,0.1c-0.1,0.1-0.1,0.2-0.1,0.3l0,2.6c0,0.2,0.2,0.4,0.5,0.4l0.5,0l0,2
	L29.5,30l0-7.7l1.2,0c0.1,0,0.2-0.1,0.3-0.1c0.1-0.1,0.1-0.2,0-0.3l-2.4-3.7C28.6,18,28.5,18,28.4,18c-0.1,0-0.3,0.1-0.3,0.2
	l-2.4,3.7c-0.1,0.1-0.1,0.2,0,0.3c0.1,0.1,0.2,0.1,0.3,0.1l1.2,0l0,10.6l-3.7-2l0-1.6c0.6-0.3,1-0.8,1-1.4c0-1-1-1.7-2.1-1.7
	c-1.2,0-2.1,0.8-2.1,1.7c0,0.6,0.4,1.1,1,1.4l0,2.1c0,0.3,0.2,0.6,0.5,0.8l5.6,3l0,3.3c-0.8,0.3-1.3,1-1.3,1.8c0,1.1,1.1,2,2.5,2
	c1.4,0,2.5-0.9,2.5-2c0-0.8-0.5-1.4-1.3-1.8l0-6.2l5.3-2.9c0.1,0,0.1-0.1,0.2-0.1c0.2-0.2,0.3-0.4,0.3-0.7l0-2.5l0.5,0
	c0.1,0,0.2,0,0.3-0.1c0.1-0.1,0.1-0.2,0.1-0.3l0-2.6C36.3,22.9,36.1,22.7,35.8,22.7L35.8,22.7z"/>
</svg>
