<?xml version="1.0" encoding="utf-8"?>
<!-- Generator: Adobe Illustrator 24.0.1, SVG Export Plug-In . SVG Version: 6.00 Build 0)  -->
<svg version="1.1" id="Layer_1" xmlns="http://www.w3.org/2000/svg" xmlns:xlink="http://www.w3.org/1999/xlink" x="0px" y="0px"
	 viewBox="0 0 64 64" style="enable-background:new 0 0 64 64;" xml:space="preserve">
<style type="text/css">
	.st0{fill:#BFBFBF;stroke:#3F3F3F;stroke-miterlimit:10;}
	.st1{fill:#F9F9F9;stroke:#3F3F3F;stroke-miterlimit:10;}
	.st2{fill:#FFFFFF;}
	.st3{fill:#0086FF;}
	.st4{fill-rule:evenodd;clip-rule:evenodd;fill:#0086FF;}
</style>
<path class="st0" d="M51,58.7H13c-3.4,0-6.2-2.8-6.2-6.2v-41c0-3.4,2.8-6.2,6.2-6.2h38c3.4,0,6.2,2.8,6.2,6.2v41
	C57.3,55.9,54.4,58.7,51,58.7z"/>
<path class="st1" d="M55.1,14.1v35.6c0,3.4-2.8,6.2-6.2,6.2H15.4c-3.4,0-6.2-2.8-6.2-6.2V14.1c0-3.4,2.8-6.2,6.2-6.2h33.5
	C52.3,7.9,55.1,10.6,55.1,14.1z"/>
<path class="st2" d="M18.9,1.1"/>
<path id="path2882" class="st3" d="M20.8,31.7l4.3-6.2c0.4-0.5,0.4-1.2,0-1.7l0,0c-0.6-0.9-1.9-0.9-2.5,0l-5.4,7.9
	c-0.3,0.5-0.3,1.2,0,1.7l5.7,8.5c0.6,0.8,1.7,0.9,2.4,0.1l0,0c0.4-0.5,0.5-1.3,0.1-1.8c-1.2-1.7-3.6-5.1-4.7-6.8
	C20.4,32.9,20.4,32.3,20.8,31.7z"/>
<path id="path2882_1_" class="st3" d="M38,42L38,42c0.7,0.8,1.8,0.7,2.4-0.1l5.7-8.5c0.3-0.5,0.3-1.2,0-1.7l-5.4-7.9
	c-0.6-0.9-1.9-0.9-2.5,0l0,0c-0.4,0.5-0.4,1.2,0,1.7l4.3,6.2c0.4,0.5,0.4,1.2,0,1.7l-4.7,6.8C37.5,40.8,37.5,41.5,38,42z"/>
<path id="rect2888" class="st4" d="M32.9,21.7L32.9,21.7c0.9-0.1,1.6,0.6,1.4,1.5l-4,20c-0.1,0.5-0.5,0.9-1,1l0,0
	c-0.9,0.1-1.6-0.6-1.4-1.5l4-20C32,22.2,32.4,21.8,32.9,21.7z"/>
</svg>
