<?xml version="1.0" encoding="utf-8"?>
<!-- Generator: Adobe Illustrator 24.0.1, SVG Export Plug-In . SVG Version: 6.00 Build 0)  -->
<svg version="1.1" id="Layer_1" xmlns="http://www.w3.org/2000/svg" xmlns:xlink="http://www.w3.org/1999/xlink" x="0px" y="0px"
	 viewBox="0 0 64 64" style="enable-background:new 0 0 64 64;" xml:space="preserve">
<style type="text/css">
	.st0{fill:#BFBFBF;stroke:#3F3F3F;stroke-miterlimit:10;}
	.st1{fill:#F9F9F9;stroke:#3F3F3F;stroke-miterlimit:10;}
	.st2{fill:#FFFFFF;}
	.st3{fill-rule:evenodd;clip-rule:evenodd;fill:#FF5A89;}
</style>
<path class="st0" d="M51,58.7H13c-3.4,0-6.2-2.8-6.2-6.2v-41c0-3.4,2.8-6.2,6.2-6.2h38c3.4,0,6.2,2.8,6.2,6.2v41
	C57.3,55.9,54.4,58.7,51,58.7z"/>
<path class="st1" d="M55.1,14.1v35.6c0,3.4-2.8,6.2-6.2,6.2H15.4c-3.4,0-6.2-2.8-6.2-6.2V14.1c0-3.4,2.8-6.2,6.2-6.2h33.5
	C52.3,7.9,55.1,10.6,55.1,14.1z"/>
<path class="st2" d="M18.9,1.1"/>
<g>
	<path class="st3" d="M43.9,38v1.5c0,1-0.1,2-0.3,3c-0.1,1-0.7,1.9-1.6,2.5H42c-0.9,0.7-2,1.1-3.1,1.1L38,46.2
		c-1.3,0.1-2.6-0.5-3.5-1.5c-0.9-1.1-1.2-2.6-0.7-4v-0.1c0.4-1.3,1.5-2.3,2.9-2.6l3.4-0.9c0.9-0.2,1.5-1,1.5-1.9v-2.3l0,0v-9.5
		c0-0.2-0.1-0.4-0.3-0.6c-0.1-0.1-0.4-0.2-0.7-0.1l-14.4,2.9c-0.5,0.1-0.9,0.5-0.9,1.1v15.4l0,0v1.1c0,1-0.1,2-0.3,3
		c-0.1,1-0.7,1.9-1.6,2.5h-0.1c-0.9,0.7-2,1.1-3.1,1.1l-0.8,0.1c-1.3,0.1-2.6-0.5-3.5-1.5c-0.9-1.1-1.1-2.6-0.6-4l0,0
		c0.4-1.3,1.5-2.3,2.9-2.6l3.4-0.9c0.9-0.2,1.5-1,1.5-1.9v-2.3l0,0V18.8c0-0.8,0.6-1.5,1.3-1.6l18-3.3c0.4-0.1,0.7,0.1,1,0.2
		c0.2,0.2,0.4,0.5,0.4,0.9V38L43.9,38z"/>
	<path class="st3" d="M43.9,38v1.5c0,1-0.1,2-0.3,3c-0.1,1-0.7,1.9-1.6,2.5H42c-0.9,0.7-2,1.1-3.1,1.1L38,46.2
		c-1.3,0.1-2.6-0.5-3.5-1.5c-0.9-1.1-1.2-2.6-0.7-4v-0.1c0.4-1.3,1.5-2.3,2.9-2.6l3.4-0.9c0.9-0.2,1.5-1,1.5-1.9v-2.3l0,0v-9.5
		c0-0.2-0.1-0.4-0.3-0.6c-0.1-0.1-0.4-0.2-0.7-0.1l-14.4,2.9c-0.5,0.1-0.9,0.5-0.9,1.1v15.4l0,0v1.1c0,1-0.1,2-0.3,3
		c-0.1,1-0.7,1.9-1.6,2.5h-0.1c-0.9,0.7-2,1.1-3.1,1.1l-0.8,0.1c-1.3,0.1-2.6-0.5-3.5-1.5c-0.9-1.1-1.1-2.6-0.6-4l0,0
		c0.4-1.3,1.5-2.3,2.9-2.6l3.4-0.9c0.9-0.2,1.5-1,1.5-1.9v-2.3l0,0V18.8c0-0.8,0.6-1.5,1.3-1.6l18-3.3c0.4-0.1,0.7,0.1,1,0.2
		c0.2,0.2,0.4,0.5,0.4,0.9V38L43.9,38z"/>
	<path class="st3" d="M43.9,38v1.5c0,1-0.1,2-0.3,3c-0.1,1-0.7,1.9-1.6,2.5H42c-0.9,0.7-2,1.1-3.1,1.1L38,46.2
		c-1.3,0.1-2.6-0.5-3.5-1.5c-0.9-1.1-1.2-2.6-0.7-4v-0.1c0.4-1.3,1.5-2.3,2.9-2.6l3.4-0.9c0.9-0.2,1.5-1,1.5-1.9v-2.3l0,0v-9.5
		c0-0.2-0.1-0.4-0.3-0.6c-0.1-0.1-0.4-0.2-0.7-0.1l-14.4,2.9c-0.5,0.1-0.9,0.5-0.9,1.1v15.4l0,0v1.1c0,1-0.1,2-0.3,3
		c-0.1,1-0.7,1.9-1.6,2.5h-0.1c-0.9,0.7-2,1.1-3.1,1.1l-0.8,0.1c-1.3,0.1-2.6-0.5-3.5-1.5c-0.9-1.1-1.1-2.6-0.6-4l0,0
		c0.4-1.3,1.5-2.3,2.9-2.6l3.4-0.9c0.9-0.2,1.5-1,1.5-1.9v-2.3l0,0V18.8c0-0.8,0.6-1.5,1.3-1.6l18-3.3c0.4-0.1,0.7,0.1,1,0.2
		c0.2,0.2,0.4,0.5,0.4,0.9V38L43.9,38z"/>
	<path class="st3" d="M43.9,38v1.5c0,1-0.1,2-0.3,3c-0.1,1-0.7,1.9-1.6,2.5H42c-0.9,0.7-2,1.1-3.1,1.1L38,46.2
		c-1.3,0.1-2.6-0.5-3.5-1.5c-0.9-1.1-1.2-2.6-0.7-4v-0.1c0.4-1.3,1.5-2.3,2.9-2.6l3.4-0.9c0.9-0.2,1.5-1,1.5-1.9v-2.3l0,0v-9.5
		c0-0.2-0.1-0.4-0.3-0.6c-0.1-0.1-0.4-0.2-0.7-0.1l-14.4,2.9c-0.5,0.1-0.9,0.5-0.9,1.1v15.4l0,0v1.1c0,1-0.1,2-0.3,3
		c-0.1,1-0.7,1.9-1.6,2.5h-0.1c-0.9,0.7-2,1.1-3.1,1.1l-0.8,0.1c-1.3,0.1-2.6-0.5-3.5-1.5c-0.9-1.1-1.1-2.6-0.6-4l0,0
		c0.4-1.3,1.5-2.3,2.9-2.6l3.4-0.9c0.9-0.2,1.5-1,1.5-1.9v-2.3l0,0V18.8c0-0.8,0.6-1.5,1.3-1.6l18-3.3c0.4-0.1,0.7,0.1,1,0.2
		c0.2,0.2,0.4,0.5,0.4,0.9V38L43.9,38z"/>
	<path class="st3" d="M43.9,38v1.5c0,1-0.1,2-0.3,3c-0.1,1-0.7,1.9-1.6,2.5H42c-0.9,0.7-2,1.1-3.1,1.1L38,46.2
		c-1.3,0.1-2.6-0.5-3.5-1.5c-0.9-1.1-1.2-2.6-0.7-4v-0.1c0.4-1.3,1.5-2.3,2.9-2.6l3.4-0.9c0.9-0.2,1.5-1,1.5-1.9v-2.3l0,0v-9.5
		c0-0.2-0.1-0.4-0.3-0.6c-0.1-0.1-0.4-0.2-0.7-0.1l-14.4,2.9c-0.5,0.1-0.9,0.5-0.9,1.1v15.4l0,0v1.1c0,1-0.1,2-0.3,3
		c-0.1,1-0.7,1.9-1.6,2.5h-0.1c-0.9,0.7-2,1.1-3.1,1.1l-0.8,0.1c-1.3,0.1-2.6-0.5-3.5-1.5c-0.9-1.1-1.1-2.6-0.6-4l0,0
		c0.4-1.3,1.5-2.3,2.9-2.6l3.4-0.9c0.9-0.2,1.5-1,1.5-1.9v-2.3l0,0V18.8c0-0.8,0.6-1.5,1.3-1.6l18-3.3c0.4-0.1,0.7,0.1,1,0.2
		c0.2,0.2,0.4,0.5,0.4,0.9V38L43.9,38z"/>
</g>
</svg>
