<?xml version="1.0" encoding="utf-8"?>
<!-- Generator: Adobe Illustrator 24.0.1, SVG Export Plug-In . SVG Version: 6.00 Build 0)  -->
<svg version="1.1" id="Layer_1" xmlns="http://www.w3.org/2000/svg" xmlns:xlink="http://www.w3.org/1999/xlink" x="0px" y="0px"
	 viewBox="0 0 64 64" style="enable-background:new 0 0 64 64;" xml:space="preserve">
<style type="text/css">
	.st0{fill:#BFBFBF;stroke:#3F3F3F;stroke-miterlimit:10;}
	.st1{fill:#F9F9F9;stroke:#3F3F3F;stroke-miterlimit:10;}
	.st2{fill:#FFFFFF;}
</style>
<path class="st0" d="M51,58.7H13c-3.4,0-6.2-2.8-6.2-6.2v-41c0-3.4,2.8-6.2,6.2-6.2h38c3.4,0,6.2,2.8,6.2,6.2v41
	C57.3,55.9,54.4,58.7,51,58.7z"/>
<path class="st1" d="M55.1,14.1v35.6c0,3.4-2.8,6.2-6.2,6.2H15.4c-3.4,0-6.2-2.8-6.2-6.2V14.1c0-3.4,2.8-6.2,6.2-6.2h33.5
	C52.3,7.9,55.1,10.6,55.1,14.1z"/>
<path class="st2" d="M18.9,1.1"/>
<g>
	<path d="M16,28.6L16,28.6l-1.4,0.7l-0.2-0.8l1.7-0.9h0.9v7.8h-1V28.6z"/>
	<path d="M25.1,31.4c0,2.7-1,4.1-2.7,4.1c-1.5,0-2.6-1.4-2.6-4c0-2.6,1.1-4.1,2.7-4.1C24.1,27.5,25.1,29,25.1,31.4z M20.8,31.6
		c0,2,0.6,3.2,1.6,3.2c1.1,0,1.6-1.3,1.6-3.3c0-1.9-0.5-3.2-1.6-3.2C21.5,28.3,20.8,29.4,20.8,31.6z"/>
	<path d="M28.3,28.6L28.3,28.6L27,29.4l-0.2-0.8l1.7-0.9h0.9v7.8h-1V28.6z"/>
	<path d="M37.4,31.4c0,2.7-1,4.1-2.7,4.1c-1.5,0-2.6-1.4-2.6-4c0-2.6,1.1-4.1,2.7-4.1C36.5,27.5,37.4,29,37.4,31.4z M33.2,31.6
		c0,2,0.6,3.2,1.6,3.2c1.1,0,1.6-1.3,1.6-3.3c0-1.9-0.5-3.2-1.6-3.2C33.8,28.3,33.2,29.4,33.2,31.6z"/>
	<path d="M43.5,31.4c0,2.7-1,4.1-2.7,4.1c-1.5,0-2.6-1.4-2.6-4c0-2.6,1.1-4.1,2.7-4.1C42.6,27.5,43.5,29,43.5,31.4z M39.3,31.6
		c0,2,0.6,3.2,1.6,3.2c1.1,0,1.6-1.3,1.6-3.3c0-1.9-0.5-3.2-1.6-3.2C40,28.3,39.3,29.4,39.3,31.6z"/>
	<path d="M46.8,28.6L46.8,28.6l-1.4,0.7l-0.2-0.8l1.7-0.9h0.9v7.8h-1V28.6z"/>
</g>
</svg>
