<?xml version="1.0" encoding="utf-8"?>
<!-- Generator: Adobe Illustrator 24.0.1, SVG Export Plug-In . SVG Version: 6.00 Build 0)  -->
<svg version="1.1" id="Layer_1" xmlns="http://www.w3.org/2000/svg" xmlns:xlink="http://www.w3.org/1999/xlink" x="0px" y="0px"
	 viewBox="0 0 64 64" style="enable-background:new 0 0 64 64;" xml:space="preserve">
<style type="text/css">
	.st0{fill:#BFBFBF;stroke:#3F3F3F;stroke-miterlimit:10;}
	.st1{fill:#F9F9F9;stroke:#3F3F3F;stroke-miterlimit:10;}
	.st2{fill:#FFFFFF;}
	.st3{fill:#F73E6B;}
	.st4{fill:#8E5809;stroke:#262626;stroke-miterlimit:10;}
	.st5{fill:#97FFA6;stroke:#262626;stroke-miterlimit:10;}
	.st6{fill:#FFCE00;stroke:#262626;stroke-miterlimit:10;}
</style>
<path class="st0" d="M51,58.7H13c-3.4,0-6.2-2.8-6.2-6.2v-41c0-3.4,2.8-6.2,6.2-6.2h38c3.4,0,6.2,2.8,6.2,6.2v41
	C57.3,55.9,54.4,58.7,51,58.7z"/>
<path class="st1" d="M55.1,14.1v35.6c0,3.4-2.8,6.2-6.2,6.2H15.4c-3.4,0-6.2-2.8-6.2-6.2V14.1c0-3.4,2.8-6.2,6.2-6.2h33.5
	C52.3,7.9,55.1,10.6,55.1,14.1z"/>
<path class="st2" d="M18.9,1.1"/>
<path class="st3" d="M27.1,28.7h-6.5c-2.7,0-4.9-2.2-4.9-4.9l0,0c0-2.7,2.2-4.9,4.9-4.9h6.5c2.7,0,4.9,2.2,4.9,4.9l0,0
	C32,26.5,29.8,28.7,27.1,28.7z"/>
<path class="st3" d="M26,50.7h-4.3c-3.3,0-6-2.7-6-6V37c0-3.3,2.7-6,6-6H26c3.3,0,6,2.7,6,6v7.6C32,48,29.3,50.7,26,50.7z"/>
<path class="st4" d="M44.7,32.2c-0.3-6.7-0.5-13.5-0.8-20.2c-0.6-1.1-1.9-1.7-3-1.5c-1.4,0.2-2.5,1.5-2.5,3
	c0.3,6.3,0.5,12.6,0.8,18.9C41,32.4,42.9,32.3,44.7,32.2z"/>
<path class="st5" d="M44.3,37.1H40c-1.4,0-2.5-1.1-2.5-2.5l0,0c0-1.4,1.1-2.5,2.5-2.5h4.3c1.4,0,2.5,1.1,2.5,2.5l0,0
	C46.8,36,45.7,37.1,44.3,37.1z"/>
<path class="st6" d="M41.5,37.1c-1.3,0.9-2.5,3-2.5,4.6c0,1,0,2,0.3,3c0.3,0.9,0.7,1.8,1.2,2.7c0.8,1.4,1.5,2.7,2.3,4.1
	c0.3-1.5,1.7-2.3,2.6-3.5c0.7-1,1-2.2,1.1-3.3c0.1-0.9,0.1-1.8-0.1-2.7c-0.3-1.1-1-2.1-1.9-3c-0.4-0.4-0.9-0.8-1.2-1.3
	s-0.5,0.1-0.3-0.5L41.5,37.1z"/>
</svg>
