<?xml version="1.0" encoding="utf-8"?>
<!-- Generator: Adobe Illustrator 24.0.1, SVG Export Plug-In . SVG Version: 6.00 Build 0)  -->
<svg version="1.1" id="Layer_1" xmlns="http://www.w3.org/2000/svg" xmlns:xlink="http://www.w3.org/1999/xlink" x="0px" y="0px"
	 viewBox="0 0 64 64" style="enable-background:new 0 0 64 64;" xml:space="preserve">
<style type="text/css">
	.st0{fill:#BFBFBF;stroke:#3F3F3F;stroke-miterlimit:10;}
	.st1{fill:#F9F9F9;stroke:#3F3F3F;stroke-miterlimit:10;}
	.st2{fill:#FFFFFF;}
	.st3{fill:#00DBFF;}
	.st4{fill:#19A500;}
	.st5{fill:#FFE600;}
</style>
<path class="st0" d="M51,58.7H13c-3.4,0-6.2-2.8-6.2-6.2v-41c0-3.4,2.8-6.2,6.2-6.2h38c3.4,0,6.2,2.8,6.2,6.2v41
	C57.3,55.9,54.4,58.7,51,58.7z"/>
<path class="st1" d="M55.1,14.1v35.6c0,3.4-2.8,6.2-6.2,6.2H15.4c-3.4,0-6.2-2.8-6.2-6.2V14.1c0-3.4,2.8-6.2,6.2-6.2h33.5
	C52.3,7.9,55.1,10.6,55.1,14.1z"/>
<path class="st2" d="M18.9,1.1"/>
<path class="st3" d="M49,18.8v26.3c0,2.5-2.1,4.6-4.6,4.6H19.6c-2.5,0-4.6-2.1-4.6-4.6V18.8c0-2.5,2.1-4.6,4.6-4.6h24.8
	C46.9,14.2,49,16.2,49,18.8z"/>
<path class="st4" d="M49,37.1v8.1c0,2.5-2.1,4.6-4.6,4.6H19.6c-2.5,0-4.6-2.1-4.6-4.6v-6.8l9.6-10.5L37.3,43L49,37.1z"/>
<circle class="st5" cx="38.3" cy="25" r="6.3"/>
</svg>
