<?xml version="1.0" encoding="utf-8"?>
<!-- Generator: Adobe Illustrator 24.0.1, SVG Export Plug-In . SVG Version: 6.00 Build 0)  -->
<svg version="1.1" id="Layer_1" xmlns="http://www.w3.org/2000/svg" xmlns:xlink="http://www.w3.org/1999/xlink" x="0px" y="0px"
	 viewBox="0 0 64 64" style="enable-background:new 0 0 64 64;" xml:space="preserve">
<style type="text/css">
	.st0{fill:#BFBFBF;stroke:#3F3F3F;stroke-miterlimit:10;}
	.st1{fill:#F9F9F9;stroke:#3F3F3F;stroke-miterlimit:10;}
	.st2{fill:#FFFFFF;}
</style>
<path class="st0" d="M51,58.7H13c-3.4,0-6.2-2.8-6.2-6.2v-41c0-3.4,2.8-6.2,6.2-6.2h38c3.4,0,6.2,2.8,6.2,6.2v41
	C57.3,55.9,54.4,58.7,51,58.7z"/>
<path class="st1" d="M55,14.2v35.6c0,3.4-2.8,6.2-6.2,6.2H15.3c-3.4,0-6.2-2.8-6.2-6.2V14.2c0-3.4,2.8-6.2,6.2-6.2h33.5
	C52.2,8,55,10.7,55,14.2z"/>
<path class="st2" d="M18.9,1.1"/>
<g>
	<path d="M19.1,30.6c2.6,0,2.9-1.4,2.9-2.7c0-1-0.1-2-0.3-3c-0.1-1-0.3-2-0.3-3c0-3.3,2.2-4.7,5.2-4.7h0.8v2h-0.6
		c-2.1,0-2.8,1.2-2.8,3.1c0,0.8,0.1,1.7,0.3,2.6c0.1,0.9,0.3,1.8,0.3,2.7c0,2.3-1,3.5-2.6,3.9v0.1c1.6,0.4,2.6,1.6,2.6,3.9
		c0,1-0.1,1.9-0.3,2.7C24.1,39,24,39.9,24,40.7c0,2,0.8,3.1,2.8,3.1h0.6v2h-0.8c-3,0-5.2-1.3-5.2-4.9c0-1,0.1-2,0.3-3
		c0.1-1,0.3-1.9,0.3-2.9c0-1.1-0.4-2.7-2.9-2.7V30.6z"/>
	<path d="M45.2,32.4c-2.6,0-2.9,1.5-2.9,2.7c0,1,0.1,1.9,0.3,2.9c0.1,1,0.3,2,0.3,3c0,3.6-2.3,4.9-5.2,4.9h-0.8v-2h0.6
		c2,0,2.9-1.1,2.9-3.1c0-0.9-0.1-1.7-0.3-2.6c-0.1-0.9-0.3-1.8-0.3-2.7c0-2.3,1-3.5,2.6-3.9v-0.1c-1.6-0.4-2.6-1.6-2.6-3.9
		c0-1,0.1-1.8,0.3-2.7c0.1-0.9,0.3-1.7,0.3-2.6c0-1.9-0.8-3.1-2.8-3.1h-0.6v-2h0.7c3.1,0,5.3,1.4,5.3,4.7c0,1-0.1,2-0.3,3
		c-0.1,1-0.3,2-0.3,3c0,1.3,0.4,2.7,2.9,2.7V32.4z"/>
</g>
</svg>
