<?xml version="1.0" encoding="utf-8"?>
<!-- Generator: Adobe Illustrator 24.0.1, SVG Export Plug-In . SVG Version: 6.00 Build 0)  -->
<svg version="1.1" id="Layer_1" xmlns="http://www.w3.org/2000/svg" xmlns:xlink="http://www.w3.org/1999/xlink" x="0px" y="0px"
	 viewBox="0 0 64 64" style="enable-background:new 0 0 64 64;" xml:space="preserve">
<style type="text/css">
	.st0{fill:#BFBFBF;stroke:#3F3F3F;stroke-miterlimit:10;}
	.st1{fill:#F9F9F9;stroke:#3F3F3F;stroke-miterlimit:10;}
	.st2{fill:#FFFFFF;}
	.st3{fill:#FF2222;}
</style>
<path class="st0" d="M51,58.7H13c-3.4,0-6.2-2.8-6.2-6.2v-41c0-3.4,2.8-6.2,6.2-6.2h38c3.4,0,6.2,2.8,6.2,6.2v41
	C57.3,55.9,54.4,58.7,51,58.7z"/>
<path class="st1" d="M55.1,14.1v35.6c0,3.4-2.8,6.2-6.2,6.2H15.4c-3.4,0-6.2-2.8-6.2-6.2V14.1c0-3.4,2.8-6.2,6.2-6.2h33.5
	C52.3,7.9,55.1,10.6,55.1,14.1z"/>
<path class="st2" d="M18.9,1.1"/>
<path class="st3" d="M23.4,49.6c-2.6,1.5-5.7-0.4-5.7-3.3V32V17.7c0-2.9,3.2-4.8,5.8-3.3l12.3,7.1l12.3,7.1c2.6,1.5,2.6,5.2,0,6.6
	l-12.4,7.1L23.4,49.6z"/>
</svg>
