<?xml version="1.0" encoding="utf-8"?>
<!-- Generator: Adobe Illustrator 24.0.1, SVG Export Plug-In . SVG Version: 6.00 Build 0)  -->
<svg version="1.1" id="Layer_1" xmlns="http://www.w3.org/2000/svg" xmlns:xlink="http://www.w3.org/1999/xlink" x="0px" y="0px"
	 viewBox="0 0 64 64" style="enable-background:new 0 0 64 64;" xml:space="preserve">
<style type="text/css">
	.st0{fill:#BFBFBF;stroke:#3F3F3F;stroke-miterlimit:10;}
	.st1{fill:#F9F9F9;stroke:#3F3F3F;stroke-miterlimit:10;}
	.st2{fill:#FFFFFF;}
	.st3{fill:#F73E6B;}
	.st4{fill:#40BDF4;}
	.st5{fill:#4067F4;}
	.st6{fill:none;}
	.st7{font-family:'MyriadPro-Regular';}
	.st8{font-size:12px;}
</style>
<path class="st0" d="M51,58.7H13c-3.4,0-6.2-2.8-6.2-6.2v-41c0-3.4,2.8-6.2,6.2-6.2h38c3.4,0,6.2,2.8,6.2,6.2v41
	C57.3,55.9,54.4,58.7,51,58.7z"/>
<path class="st1" d="M55,14.2v35.6c0,3.4-2.8,6.2-6.2,6.2H15.3c-3.4,0-6.2-2.8-6.2-6.2V14.2c0-3.4,2.8-6.2,6.2-6.2h33.5
	C52.2,8,55,10.7,55,14.2z"/>
<path class="st2" d="M18.9,1.1"/>
<path class="st3" d="M42.5,27.4H17.7c-2.5,0-4.6-2.1-4.6-4.8l0,0c0-2.6,2-4.8,4.6-4.8h24.9c2.5,0,4.6,2.1,4.6,4.8l0,0
	C47,25.2,45,27.4,42.5,27.4z"/>
<path class="st4" d="M47.5,37H22.7c-2.5,0-4.6-2.1-4.6-4.8l0,0c0-2.6,2-4.8,4.6-4.8h24.9c2.5,0,4.6,2.1,4.6,4.8l0,0
	C52.1,34.8,50,37,47.5,37z"/>
<path class="st5" d="M41.4,46.6H16.6c-2.5,0-4.6-2.1-4.6-4.8l0,0c0-2.6,2-4.8,4.6-4.8h24.9c2.5,0,4.6,2.1,4.6,4.8l0,0
	C46,44.4,43.9,46.6,41.4,46.6z"/>
<rect x="23.5" y="27.7" class="st6" width="29.5" height="28.1"/>
<text transform="matrix(1 0 0 1 23.4844 36.2346)" class="st2 st7 st8">ZIP</text>
</svg>
